<svg width="302" height="260" viewBox="0 0 302 260" fill="none" xmlns="http://www.w3.org/2000/svg">
<path d="M201.05 228.52C200.147 228.535 199.25 228.358 198.42 228C197.651 227.664 196.967 227.158 196.42 226.52C195.849 225.845 195.423 225.058 195.17 224.21C194.873 223.238 194.728 222.226 194.74 221.21C194.71 219.884 194.966 218.568 195.49 217.35C195.945 216.304 196.696 215.415 197.65 214.79C198.666 214.168 199.84 213.855 201.03 213.89C202.301 213.819 203.56 214.171 204.61 214.89C205.54 215.598 206.216 216.587 206.54 217.71L205.12 218.06C204.848 217.236 204.332 216.514 203.64 215.99C202.895 215.457 201.995 215.187 201.08 215.22C200.153 215.161 199.233 215.406 198.457 215.916C197.682 216.427 197.093 217.176 196.78 218.05C196.405 219.043 196.219 220.098 196.23 221.16C196.201 222.215 196.381 223.265 196.76 224.25C197.081 225.092 197.645 225.819 198.38 226.34C199.18 226.868 200.122 227.136 201.08 227.11C201.936 227.147 202.785 226.943 203.53 226.52C204.183 226.127 204.697 225.539 205 224.84C205.36 224.023 205.554 223.143 205.57 222.25H202.4V221.02H207.05C207.061 221.18 207.061 221.34 207.05 221.5C207.05 221.66 207.05 221.78 207.05 221.85C207.067 223.021 206.839 224.182 206.38 225.26C205.96 226.226 205.265 227.047 204.38 227.62C203.365 228.232 202.194 228.534 201.01 228.49" fill="#353A36"/>
<path d="M209.44 222.15H217.34V223.35H209.44V222.15ZM213.44 228.52C212.519 228.544 211.61 228.304 210.82 227.83C210.078 227.367 209.485 226.7 209.11 225.91C208.685 225 208.476 224.004 208.5 223C208.471 221.968 208.676 220.942 209.1 220C209.458 219.194 210.051 218.514 210.8 218.05C211.576 217.577 212.472 217.338 213.38 217.36C214.306 217.331 215.219 217.582 216 218.08C216.739 218.587 217.307 219.305 217.63 220.14C218.027 221.158 218.2 222.249 218.14 223.34H216.71V222.83C216.76 221.73 216.455 220.643 215.84 219.73C215.544 219.385 215.171 219.114 214.75 218.94C214.33 218.766 213.874 218.694 213.42 218.73C212.939 218.699 212.457 218.783 212.013 218.974C211.57 219.165 211.178 219.459 210.87 219.83C210.226 220.749 209.916 221.86 209.99 222.98C209.92 224.08 210.231 225.172 210.87 226.07C211.174 226.436 211.559 226.727 211.995 226.918C212.431 227.109 212.905 227.195 213.38 227.17C214.064 227.189 214.738 227.008 215.32 226.65C215.891 226.28 216.345 225.757 216.63 225.14L217.94 225.66C217.566 226.533 216.939 227.275 216.14 227.79C215.333 228.3 214.395 228.565 213.44 228.55" fill="#353A36"/>
<path d="M220.21 228.23V217.67H221.47V220.21L221.22 219.88C221.336 219.573 221.487 219.281 221.67 219.01C221.841 218.768 222.043 218.55 222.27 218.36C222.545 218.118 222.864 217.931 223.21 217.81C223.557 217.684 223.921 217.61 224.29 217.59C224.625 217.559 224.964 217.586 225.29 217.67V219C224.885 218.9 224.464 218.876 224.05 218.93C223.594 218.985 223.165 219.177 222.82 219.48C222.482 219.742 222.217 220.087 222.05 220.48C221.872 220.863 221.754 221.271 221.7 221.69C221.64 222.111 221.61 222.535 221.61 222.96V228.23H220.21Z" fill="#353A36"/>
<path d="M239.43 228.23V221.3C239.47 220.595 239.233 219.903 238.77 219.37C238.552 219.144 238.289 218.966 237.998 218.847C237.707 218.728 237.394 218.671 237.08 218.68C236.684 218.681 236.294 218.774 235.94 218.95C235.554 219.147 235.234 219.453 235.02 219.83C234.765 220.316 234.641 220.861 234.66 221.41L233.83 221.17C233.801 220.476 233.952 219.787 234.27 219.17C234.57 218.622 235.012 218.166 235.55 217.85C236.115 217.524 236.758 217.359 237.41 217.37C237.872 217.351 238.333 217.43 238.762 217.603C239.192 217.775 239.579 218.037 239.9 218.37C240.224 218.728 240.474 219.146 240.635 219.601C240.797 220.056 240.866 220.538 240.84 221.02V228.23H239.43ZM233.28 228.23V221.39C233.323 220.664 233.087 219.948 232.62 219.39C232.395 219.16 232.126 218.977 231.829 218.852C231.532 218.727 231.212 218.662 230.89 218.662C230.568 218.662 230.249 218.727 229.952 218.852C229.655 218.977 229.386 219.16 229.16 219.39C228.697 219.95 228.462 220.664 228.5 221.39L227.66 220.92C227.652 220.282 227.814 219.654 228.13 219.1C228.434 218.569 228.877 218.13 229.41 217.83C229.974 217.512 230.613 217.35 231.26 217.36C231.875 217.351 232.482 217.503 233.02 217.8C233.538 218.088 233.959 218.523 234.23 219.05C234.537 219.671 234.685 220.358 234.66 221.05V228.22L233.28 228.23ZM227.1 228.23V217.67H228.36V220.27H228.51V228.27L227.1 228.23Z" fill="#353A36"/>
<path d="M243.53 228.23H244.94V217.67H243.53V228.23ZM243.53 215.66H244.94V214.05H243.53V215.66Z" fill="#353A36"/>
<path d="M255.27 228.23V222.84C255.277 222.296 255.223 221.752 255.11 221.22C255.015 220.762 254.839 220.326 254.59 219.93C254.36 219.57 254.039 219.277 253.66 219.08C253.234 218.861 252.759 218.754 252.28 218.77C251.826 218.76 251.375 218.853 250.96 219.04C250.569 219.202 250.225 219.46 249.96 219.79C249.692 220.15 249.496 220.557 249.38 220.99C249.237 221.511 249.17 222.05 249.18 222.59L248.18 222.37C248.15 221.43 248.338 220.495 248.73 219.64C249.066 218.943 249.603 218.362 250.27 217.97C250.952 217.581 251.726 217.384 252.51 217.4C253.065 217.386 253.617 217.489 254.13 217.7C254.572 217.882 254.973 218.151 255.31 218.49C255.633 218.821 255.893 219.207 256.08 219.63C256.283 220.063 256.431 220.52 256.52 220.99C256.608 221.462 256.652 221.94 256.65 222.42V228.23H255.27ZM247.8 228.23V217.67H249.07V220.27H249.22V228.27L247.8 228.23Z" fill="#353A36"/>
<path d="M262.3 227.28C262.895 227.296 263.484 227.169 264.02 226.91C264.495 226.682 264.904 226.338 265.21 225.91C265.51 225.488 265.708 225.002 265.79 224.49C265.872 224.122 265.915 223.747 265.92 223.37C265.92 222.96 265.92 222.66 265.92 222.46L266.45 222.74L264.9 222.94C264.34 223 263.79 223.08 263.25 223.16C262.758 223.239 262.271 223.342 261.79 223.47C261.494 223.553 261.209 223.67 260.94 223.82C260.669 223.968 260.437 224.177 260.26 224.43C260.08 224.714 259.99 225.044 260 225.38C260.003 225.69 260.079 225.994 260.22 226.27C260.392 226.57 260.645 226.816 260.95 226.98C261.365 227.189 261.826 227.288 262.29 227.27M262.13 228.51C261.438 228.536 260.75 228.388 260.13 228.08C259.661 227.831 259.27 227.457 259 227C258.733 226.524 258.595 225.986 258.6 225.44C258.589 224.929 258.706 224.424 258.94 223.97C259.165 223.567 259.484 223.224 259.87 222.97C260.292 222.699 260.755 222.496 261.24 222.37C261.76 222.24 262.34 222.12 262.98 222.02C263.62 221.92 264.23 221.84 264.84 221.76C265.45 221.68 265.98 221.61 266.44 221.54L265.95 221.85C266.028 221.033 265.815 220.216 265.35 219.54C265.071 219.259 264.731 219.044 264.357 218.913C263.983 218.781 263.584 218.736 263.19 218.78C262.558 218.761 261.935 218.932 261.4 219.27C260.888 219.646 260.532 220.198 260.4 220.82L259.03 220.41C259.22 219.528 259.725 218.746 260.45 218.21C261.27 217.651 262.249 217.373 263.24 217.42C264.077 217.399 264.905 217.588 265.65 217.97C266.287 218.312 266.783 218.868 267.05 219.54C267.177 219.861 267.261 220.197 267.3 220.54C267.32 220.926 267.32 221.314 267.3 221.7V228.26H266.05V225.6L266.41 225.76C266.109 226.611 265.536 227.338 264.78 227.83C263.983 228.325 263.058 228.576 262.12 228.55" fill="#353A36"/>
<path d="M277.28 228.23V222.84C277.283 222.295 277.226 221.752 277.11 221.22C277.02 220.761 276.843 220.323 276.59 219.93C276.363 219.571 276.046 219.278 275.67 219.08C275.241 218.861 274.762 218.754 274.28 218.77C273.829 218.76 273.381 218.853 272.97 219.04C272.579 219.202 272.235 219.46 271.97 219.79C271.695 220.147 271.495 220.555 271.38 220.99C271.242 221.512 271.175 222.05 271.18 222.59L270.18 222.37C270.152 221.429 270.344 220.494 270.74 219.64C271.076 218.946 271.608 218.365 272.27 217.97C272.952 217.582 273.726 217.385 274.51 217.4C275.065 217.386 275.617 217.489 276.13 217.7C276.573 217.88 276.975 218.149 277.31 218.49C277.633 218.823 277.896 219.209 278.09 219.63C278.29 220.063 278.435 220.52 278.52 220.99C278.608 221.462 278.652 221.94 278.65 222.42V228.23H277.28ZM269.8 228.23V217.67H271.08V220.27H271.22V228.27L269.8 228.23Z" fill="#353A36"/>
<path d="M288.51 228.23V220.28H288.36V214.15H289.78V228.23H288.51ZM285.27 227.23C285.921 227.256 286.562 227.063 287.09 226.68C287.582 226.288 287.953 225.764 288.16 225.17C288.629 223.748 288.629 222.212 288.16 220.79C287.954 220.201 287.582 219.684 287.09 219.3C286.566 218.925 285.933 218.735 285.29 218.76C284.634 218.737 283.99 218.934 283.46 219.32C282.96 219.712 282.585 220.24 282.38 220.84C282.138 221.531 282.02 222.258 282.03 222.99C282.019 223.726 282.141 224.457 282.39 225.15C282.599 225.749 282.973 226.276 283.47 226.67C283.989 227.055 284.624 227.252 285.27 227.23M285.12 228.57C284.239 228.592 283.374 228.333 282.65 227.83C281.955 227.318 281.413 226.626 281.08 225.83C280.36 224.005 280.36 221.975 281.08 220.15C281.404 219.351 281.944 218.659 282.64 218.15C283.348 217.646 284.201 217.386 285.07 217.41C285.944 217.385 286.802 217.641 287.52 218.14C288.201 218.649 288.722 219.343 289.02 220.14C289.707 221.978 289.707 224.002 289.02 225.84C288.716 226.633 288.197 227.326 287.52 227.84C286.821 228.348 285.973 228.608 285.11 228.58" fill="#353A36"/>
<path d="M296.77 227.14C297.262 227.171 297.753 227.08 298.201 226.876C298.65 226.672 299.041 226.361 299.34 225.97C299.927 225.083 300.221 224.033 300.18 222.97C300.24 221.888 299.941 220.816 299.33 219.92C299.028 219.536 298.638 219.231 298.191 219.033C297.745 218.834 297.257 218.747 296.77 218.78C296.092 218.753 295.423 218.942 294.86 219.32C294.349 219.687 293.959 220.199 293.74 220.79C293.489 221.489 293.367 222.227 293.38 222.97C293.322 224.054 293.624 225.126 294.24 226.02C294.534 226.405 294.919 226.712 295.361 226.913C295.802 227.113 296.286 227.202 296.77 227.17M296.77 228.55C295.841 228.578 294.925 228.327 294.14 227.83C293.397 227.341 292.814 226.646 292.46 225.83C292.062 224.919 291.864 223.934 291.88 222.94C291.859 221.938 292.061 220.944 292.47 220.03C292.829 219.215 293.416 218.52 294.16 218.03C294.96 217.568 295.867 217.325 296.79 217.325C297.713 217.325 298.621 217.568 299.42 218.03C300.16 218.519 300.741 219.214 301.09 220.03C301.473 220.949 301.67 221.935 301.67 222.93C301.67 223.925 301.473 224.911 301.09 225.83C300.736 226.648 300.148 227.344 299.4 227.83C298.608 228.31 297.696 228.553 296.77 228.53" fill="#353A36"/>
<path d="M195.52 255.05V240.97H204.14V242.35H196.93V247.22H202.99V248.6H196.93V253.67H204.14V255.05H195.52Z" fill="#353A36"/>
<path d="M213.83 255.05V247.05H213.68V241H215.1V255.08L213.83 255.05ZM210.59 254C211.239 254.022 211.878 253.832 212.41 253.46C212.906 253.067 213.277 252.539 213.48 251.94C213.946 250.521 213.946 248.989 213.48 247.57C213.28 246.978 212.907 246.459 212.41 246.08C211.89 245.705 211.26 245.515 210.62 245.54C209.963 245.517 209.317 245.71 208.78 246.09C208.283 246.483 207.908 247.011 207.7 247.61C207.459 248.301 207.341 249.028 207.35 249.76C207.34 250.499 207.462 251.234 207.71 251.93C207.919 252.529 208.294 253.056 208.79 253.45C209.311 253.831 209.945 254.025 210.59 254M210.44 255.34C209.561 255.371 208.696 255.11 207.98 254.6C207.279 254.094 206.735 253.401 206.41 252.6C205.683 250.776 205.683 248.744 206.41 246.92C206.733 246.121 207.273 245.428 207.97 244.92C208.679 244.419 209.532 244.163 210.4 244.19C211.273 244.162 212.132 244.414 212.85 244.91C213.531 245.419 214.052 246.113 214.35 246.91C214.712 247.819 214.888 248.792 214.87 249.77C214.885 250.741 214.712 251.705 214.36 252.61C214.059 253.402 213.543 254.095 212.87 254.61C212.169 255.121 211.317 255.382 210.45 255.35" fill="#353A36"/>
<path d="M225.2 255.05V252.45H225.06V244.45H226.47V255.01L225.2 255.05ZM221.73 255.31C221.176 255.321 220.626 255.222 220.11 255.02C219.669 254.836 219.268 254.568 218.93 254.23C218.608 253.897 218.344 253.511 218.15 253.09C217.95 252.657 217.806 252.2 217.72 251.73C217.629 251.259 217.583 250.78 217.58 250.3V244.49H219V249.88C218.999 250.421 219.053 250.96 219.16 251.49C219.257 251.952 219.436 252.392 219.69 252.79C219.918 253.152 220.239 253.445 220.62 253.64C221.048 253.853 221.522 253.957 222 253.94C222.451 253.953 222.899 253.864 223.31 253.68C223.702 253.514 224.046 253.253 224.31 252.92C224.581 252.561 224.781 252.154 224.9 251.72C225.039 251.198 225.106 250.66 225.1 250.12L226.1 250.35C226.132 251.287 225.944 252.219 225.55 253.07C225.218 253.769 224.685 254.354 224.02 254.75C223.336 255.13 222.563 255.323 221.78 255.31" fill="#353A36"/>
<path d="M233.43 255.34C232.5 255.368 231.581 255.121 230.79 254.63C230.059 254.139 229.488 253.443 229.15 252.63C228.761 251.716 228.564 250.733 228.57 249.74C228.56 248.736 228.761 247.741 229.16 246.82C229.515 246.024 230.091 245.347 230.82 244.87C231.605 244.383 232.517 244.14 233.44 244.17C234.411 244.148 235.366 244.42 236.18 244.95C236.939 245.461 237.501 246.216 237.77 247.09L236.39 247.54C236.173 246.94 235.77 246.425 235.24 246.07C234.703 245.719 234.072 245.538 233.43 245.55C232.763 245.524 232.106 245.71 231.55 246.08C231.038 246.449 230.651 246.965 230.44 247.56C230.182 248.257 230.053 248.996 230.06 249.74C230.031 250.805 230.331 251.852 230.92 252.74C231.211 253.124 231.593 253.43 232.031 253.63C232.469 253.831 232.95 253.92 233.43 253.89C234.066 253.911 234.693 253.74 235.23 253.4C235.744 253.048 236.135 252.545 236.35 251.96L237.77 252.39C237.448 253.27 236.853 254.023 236.072 254.541C235.292 255.059 234.366 255.315 233.43 255.27" fill="#353A36"/>
<path d="M242.79 254.1C243.387 254.114 243.978 253.991 244.52 253.74C244.992 253.512 245.398 253.168 245.7 252.74C246.003 252.315 246.205 251.825 246.29 251.31C246.369 250.942 246.409 250.566 246.41 250.19C246.41 249.79 246.41 249.48 246.41 249.28L246.95 249.56L245.39 249.76C244.83 249.82 244.29 249.9 243.75 249.99C243.258 250.06 242.77 250.16 242.29 250.29C241.989 250.372 241.7 250.493 241.43 250.65C241.163 250.799 240.934 251.008 240.76 251.26C240.575 251.541 240.484 251.874 240.5 252.21C240.499 252.517 240.575 252.819 240.72 253.09C240.886 253.397 241.14 253.648 241.45 253.81C241.862 254.016 242.32 254.112 242.78 254.09M242.62 255.33C241.927 255.362 241.238 255.214 240.62 254.9C240.122 254.643 239.709 254.247 239.43 253.76C239.171 253.284 239.037 252.751 239.04 252.21C239.016 251.722 239.12 251.235 239.343 250.8C239.566 250.365 239.9 249.996 240.31 249.73C240.729 249.459 241.188 249.256 241.67 249.13C242.2 249.01 242.77 248.89 243.41 248.79L245.28 248.52C245.88 248.45 246.42 248.38 246.88 248.3L246.38 248.62C246.462 247.801 246.253 246.98 245.79 246.3C245.506 246.023 245.164 245.812 244.789 245.683C244.414 245.553 244.015 245.508 243.62 245.55C242.988 245.529 242.364 245.7 241.83 246.04C241.321 246.415 240.966 246.962 240.83 247.58L239.46 247.17C239.656 246.288 240.164 245.507 240.89 244.97C241.709 244.418 242.684 244.145 243.67 244.19C244.506 244.166 245.334 244.351 246.08 244.73C246.721 245.067 247.218 245.625 247.48 246.3C247.612 246.619 247.696 246.956 247.73 247.3C247.77 247.682 247.791 248.066 247.79 248.45V255.01H246.54V252.4L246.9 252.56C246.59 253.408 246.015 254.134 245.26 254.63C244.461 255.119 243.537 255.366 242.6 255.34" fill="#353A36"/>
<path d="M254.13 259.74C253.91 259.742 253.691 259.711 253.48 259.65C253.286 259.592 253.096 259.522 252.91 259.44L253.27 258.44C253.504 258.545 253.754 258.606 254.01 258.62C254.119 258.626 254.227 258.607 254.327 258.566C254.428 258.524 254.517 258.461 254.59 258.38C254.724 258.236 254.799 258.047 254.8 257.85C254.806 257.714 254.771 257.579 254.7 257.464C254.629 257.348 254.524 257.256 254.4 257.2C254.117 257.062 253.823 256.948 253.52 256.86L254.23 254.86H255.23L254.74 256.23C255.064 256.374 255.348 256.594 255.57 256.87C255.787 257.157 255.9 257.51 255.89 257.87C255.893 258.11 255.848 258.349 255.759 258.572C255.669 258.795 255.536 258.998 255.368 259.17C255.2 259.342 255 259.479 254.779 259.573C254.558 259.667 254.32 259.717 254.08 259.72M254.55 255.32C253.616 255.35 252.694 255.103 251.9 254.61C251.172 254.116 250.602 253.421 250.26 252.61C249.871 251.696 249.674 250.713 249.68 249.72C249.668 248.715 249.873 247.719 250.28 246.8C250.628 246.003 251.201 245.325 251.93 244.85C252.719 244.363 253.634 244.119 254.56 244.15C255.528 244.129 256.479 244.401 257.29 244.93C258.049 245.441 258.61 246.196 258.88 247.07L257.5 247.52C257.283 246.92 256.88 246.405 256.35 246.05C255.796 245.706 255.157 245.524 254.505 245.524C253.853 245.524 253.214 245.706 252.66 246.05C252.148 246.419 251.761 246.935 251.55 247.53C251.295 248.228 251.17 248.967 251.18 249.71C251.146 250.775 251.447 251.824 252.04 252.71C252.33 253.095 252.711 253.402 253.15 253.603C253.588 253.804 254.069 253.892 254.55 253.86C255.183 253.881 255.806 253.71 256.34 253.37C256.854 253.018 257.245 252.515 257.46 251.93L258.88 252.36C258.554 253.23 257.967 253.977 257.2 254.5C256.412 255.009 255.488 255.268 254.55 255.24" fill="#353A36"/>
<path d="M266.49 242.81C266.221 242.813 265.954 242.755 265.71 242.64C265.452 242.529 265.202 242.402 264.96 242.26C264.72 242.11 264.5 241.98 264.29 241.87C264.102 241.769 263.893 241.714 263.68 241.71C263.581 241.697 263.48 241.719 263.394 241.772C263.309 241.825 263.244 241.905 263.21 242C263.14 242.208 263.14 242.432 263.21 242.64H262.21C262.136 242.394 262.114 242.136 262.145 241.881C262.176 241.626 262.259 241.381 262.39 241.16C262.52 240.958 262.702 240.795 262.917 240.688C263.131 240.581 263.371 240.533 263.61 240.55C263.883 240.55 264.152 240.608 264.4 240.72C264.66 240.83 264.911 240.96 265.15 241.11C265.39 241.25 265.61 241.38 265.83 241.49C266.014 241.592 266.22 241.65 266.43 241.66C266.531 241.668 266.631 241.644 266.716 241.589C266.801 241.535 266.866 241.455 266.9 241.36C266.987 241.145 266.987 240.905 266.9 240.69H267.9C267.973 240.937 267.996 241.196 267.967 241.452C267.937 241.708 267.857 241.956 267.73 242.18C267.599 242.389 267.414 242.559 267.193 242.67C266.973 242.781 266.726 242.829 266.48 242.81M264 254.1C264.594 254.113 265.182 253.99 265.72 253.74C266.192 253.512 266.598 253.168 266.9 252.74C267.204 252.315 267.405 251.825 267.49 251.31C267.569 250.942 267.609 250.566 267.61 250.19C267.61 249.79 267.61 249.48 267.61 249.28L268.15 249.56L266.59 249.76C266.04 249.82 265.49 249.9 264.95 249.99C264.458 250.06 263.97 250.16 263.49 250.29C263.189 250.372 262.9 250.493 262.63 250.65C262.363 250.799 262.134 251.008 261.96 251.26C261.775 251.541 261.684 251.874 261.7 252.21C261.699 252.517 261.775 252.819 261.92 253.09C262.089 253.395 262.343 253.645 262.65 253.81C263.065 254.017 263.527 254.113 263.99 254.09M263.82 255.33C263.128 255.362 262.438 255.214 261.82 254.9C261.322 254.643 260.909 254.247 260.63 253.76C260.372 253.284 260.237 252.751 260.24 252.21C260.216 251.722 260.321 251.235 260.543 250.8C260.766 250.365 261.1 249.996 261.51 249.73C261.929 249.459 262.388 249.256 262.87 249.13C263.4 249.01 263.97 248.89 264.61 248.79L266.48 248.52C267.09 248.45 267.62 248.38 268.08 248.3L267.58 248.62C267.662 247.801 267.453 246.98 266.99 246.3C266.706 246.023 266.364 245.812 265.989 245.683C265.614 245.553 265.215 245.508 264.82 245.55C264.188 245.529 263.564 245.7 263.03 246.04C262.521 246.415 262.166 246.962 262.03 247.58L260.66 247.17C260.856 246.288 261.364 245.507 262.09 244.97C262.912 244.417 263.891 244.143 264.88 244.19C265.713 244.167 266.538 244.353 267.28 244.73C267.921 245.067 268.418 245.625 268.68 246.3C268.812 246.619 268.896 246.956 268.93 247.3C268.971 247.682 268.991 248.066 268.99 248.45V255.01H267.74V252.4L268.1 252.56C267.79 253.408 267.215 254.134 266.46 254.63C265.661 255.119 264.737 255.366 263.8 255.34" fill="#353A36"/>
<path d="M275.78 254C276.272 254.037 276.766 253.95 277.215 253.745C277.665 253.54 278.055 253.226 278.35 252.83C278.9 251.911 279.19 250.861 279.19 249.79C279.19 248.719 278.9 247.669 278.35 246.75C278.046 246.366 277.653 246.063 277.205 245.866C276.757 245.669 276.268 245.584 275.78 245.62C275.107 245.594 274.443 245.78 273.88 246.15C273.368 246.517 272.978 247.029 272.76 247.62C272.5 248.317 272.375 249.056 272.39 249.8C272.332 250.884 272.634 251.956 273.25 252.85C273.548 253.232 273.933 253.535 274.374 253.736C274.814 253.936 275.297 254.027 275.78 254M275.78 255.38C274.853 255.405 273.939 255.158 273.15 254.67C272.416 254.174 271.838 253.48 271.48 252.67C271.074 251.762 270.872 250.775 270.89 249.78C270.867 248.777 271.073 247.782 271.49 246.87C271.85 246.068 272.438 245.39 273.18 244.92C273.978 244.458 274.883 244.215 275.805 244.215C276.727 244.215 277.632 244.458 278.43 244.92C279.174 245.408 279.758 246.103 280.11 246.92C280.505 247.831 280.699 248.817 280.68 249.81C280.703 250.814 280.505 251.811 280.1 252.73C279.748 253.547 279.164 254.242 278.42 254.73C277.627 255.215 276.709 255.458 275.78 255.43" fill="#353A36"/>
<path d="M81.5101 144.96H75.6401V186.26H81.5101V144.96Z" fill="#353A36"/>
<path d="M107.47 161.13C108.464 161.791 109.268 162.701 109.8 163.77C110.36 164.884 110.741 166.078 110.93 167.31C111.119 168.538 111.215 169.778 111.22 171.02V186.25H117.22V169C117.21 167.889 117.127 166.78 116.97 165.68C116.773 164.359 116.437 163.062 115.97 161.81C115.514 160.486 114.838 159.249 113.97 158.15C113.036 156.994 111.849 156.067 110.5 155.44C108.838 154.712 107.033 154.37 105.22 154.44C102.764 154.366 100.336 154.99 98.2202 156.24C97.0512 157.015 96.0343 157.998 95.2202 159.14V155.27H89.9702V186.27H95.9203V170.14C95.8855 168.559 96.0877 166.981 96.5203 165.46C96.852 164.322 97.4174 163.267 98.1803 162.36C98.8485 161.6 99.6933 161.016 100.64 160.66C101.598 160.297 102.616 160.117 103.64 160.13C105.017 160.066 106.382 160.414 107.56 161.13" fill="#353A36"/>
<path d="M140.77 180.66C139.492 181.492 137.983 181.895 136.46 181.81C134.671 181.873 132.906 181.388 131.4 180.42C130.073 179.539 129.141 178.176 128.8 176.62L122.8 177.56C123.006 178.954 123.489 180.292 124.223 181.494C124.957 182.697 125.925 183.74 127.07 184.56C129.732 186.319 132.883 187.19 136.07 187.05C139.91 187.05 142.91 186.18 145.07 184.44C146.144 183.585 147 182.487 147.568 181.237C148.137 179.988 148.401 178.621 148.34 177.25C148.437 175.795 148.088 174.346 147.34 173.095C146.591 171.844 145.478 170.851 144.15 170.25C142.224 169.277 140.19 168.532 138.09 168.03C135.71 167.423 133.914 166.897 132.7 166.45C131.784 166.189 130.941 165.716 130.24 165.07C129.817 164.587 129.591 163.962 129.61 163.32C129.605 162.748 129.758 162.185 130.05 161.693C130.343 161.201 130.765 160.799 131.27 160.53C132.587 159.802 134.092 159.488 135.59 159.63C137.204 159.626 138.781 160.114 140.11 161.03C140.668 161.45 141.133 161.98 141.477 162.587C141.821 163.194 142.037 163.866 142.11 164.56L148.11 163.44C147.921 161.68 147.227 160.013 146.11 158.64C144.931 157.229 143.414 156.138 141.7 155.47C139.724 154.693 137.614 154.312 135.49 154.35C133.36 154.302 131.243 154.694 129.27 155.5C127.622 156.171 126.198 157.294 125.16 158.74C124.174 160.181 123.663 161.894 123.7 163.64C123.666 164.995 124.013 166.332 124.7 167.5C125.514 168.706 126.641 169.667 127.96 170.28C129.939 171.237 132.014 171.981 134.15 172.5C136.53 173.15 138.29 173.7 139.45 174.14C140.324 174.396 141.117 174.875 141.75 175.53C142.131 176.088 142.321 176.755 142.29 177.43C142.314 178.045 142.183 178.656 141.911 179.208C141.638 179.759 141.233 180.235 140.73 180.59" fill="#353A36"/>
<path d="M162.91 146.68H157V155.28H151.18V160.1H157V174.1C157 175.79 157 177.29 157.07 178.62C157.119 179.986 157.478 181.323 158.12 182.53C158.81 183.928 159.962 185.044 161.38 185.69C162.926 186.382 164.597 186.753 166.29 186.78C168.176 186.833 170.062 186.668 171.91 186.29V181.22C170.197 181.492 168.458 181.552 166.73 181.4C166.07 181.359 165.43 181.155 164.868 180.806C164.306 180.457 163.84 179.974 163.51 179.4C163.141 178.656 162.966 177.83 163 177C163 176.08 163 175 163 173.76V160.1H172V155.28H163L162.91 146.68Z" fill="#353A36"/>
<path d="M184.73 144.38H178.86V150.2H184.73V144.38Z" fill="#353A36"/>
<path d="M184.73 155.28H178.86V186.25H184.73V155.28Z" fill="#353A36"/>
<path d="M201.49 146.68H195.59V155.28H189.78V160.1H195.59V174.1C195.59 175.79 195.59 177.29 195.67 178.62C195.703 179.982 196.045 181.319 196.67 182.53C197.357 183.93 198.51 185.047 199.93 185.69C201.476 186.383 203.146 186.754 204.84 186.78C206.726 186.832 208.612 186.668 210.46 186.29V181.22C208.747 181.492 207.008 181.552 205.28 181.4C204.62 181.359 203.98 181.155 203.418 180.806C202.856 180.457 202.39 179.974 202.06 179.4C201.68 178.686 201.481 177.889 201.48 177.08C201.48 176.16 201.48 175.08 201.48 173.84V160.1H210.48V155.28H201.48L201.49 146.68Z" fill="#353A36"/>
<path d="M237.63 171.4C237.664 172.978 237.462 174.552 237.03 176.07C236.698 177.208 236.133 178.263 235.37 179.17C234.702 179.93 233.857 180.514 232.91 180.87C231.952 181.233 230.934 181.412 229.91 181.4C228.625 181.489 227.342 181.19 226.229 180.541C225.117 179.892 224.225 178.923 223.67 177.76C223.106 176.648 222.725 175.453 222.54 174.22C222.352 172.992 222.255 171.752 222.25 170.51V155.28H216.25V172.49C216.26 173.601 216.343 174.71 216.5 175.81C216.702 177.134 217.037 178.434 217.5 179.69C217.963 181.008 218.638 182.241 219.5 183.34C220.435 184.496 221.622 185.423 222.97 186.05C224.632 186.778 226.437 187.12 228.25 187.05C230.707 187.124 233.134 186.5 235.25 185.25C236.416 184.476 237.433 183.497 238.25 182.36V186.22H243.47V155.22H237.55L237.63 171.4Z" fill="#353A36"/>
<path d="M259.75 146.68H253.86V155.28H248.05V160.1H253.86V174.1C253.86 175.79 253.86 177.29 253.93 178.62C253.974 179.981 254.316 181.315 254.93 182.53C255.62 183.928 256.772 185.044 258.19 185.69C259.736 186.382 261.407 186.753 263.1 186.78C264.986 186.833 266.872 186.668 268.72 186.29V181.22C267.007 181.492 265.268 181.552 263.54 181.4C262.88 181.359 262.24 181.155 261.678 180.806C261.116 180.457 260.65 179.974 260.32 179.4C259.948 178.683 259.752 177.888 259.75 177.08C259.75 176.16 259.75 175.08 259.75 173.84V160.1H268.75V155.28H259.75V146.68Z" fill="#353A36"/>
<path d="M293.41 178.46C292.614 179.394 291.626 180.145 290.514 180.663C289.401 181.181 288.19 181.453 286.963 181.46C285.736 181.468 284.522 181.211 283.403 180.707C282.284 180.203 281.287 179.464 280.48 178.54C278.919 176.248 278.15 173.509 278.29 170.74C278.255 168.849 278.567 166.968 279.21 165.19C279.756 163.611 280.805 162.256 282.196 161.331C283.587 160.406 285.243 159.963 286.91 160.07C288.144 159.99 289.379 160.213 290.507 160.72C291.635 161.227 292.621 162.003 293.38 162.98C294.929 165.261 295.691 167.986 295.55 170.74C295.672 173.475 294.923 176.178 293.41 178.46M299.96 162.28C298.816 159.91 297.028 157.91 294.8 156.51C292.406 155.153 289.701 154.44 286.95 154.44C284.198 154.44 281.494 155.153 279.1 156.51C276.861 157.889 275.061 159.876 273.91 162.24C272.626 164.9 271.988 167.827 272.05 170.78C271.994 173.715 272.613 176.623 273.86 179.28C275.002 181.631 276.783 183.614 279 185C281.399 186.367 284.113 187.086 286.875 187.086C289.636 187.086 292.35 186.367 294.75 185C296.984 183.605 298.779 181.609 299.93 179.24C301.141 176.57 301.767 173.672 301.767 170.74C301.767 167.808 301.141 164.91 299.93 162.24" fill="#353A36"/>
<path d="M87.7201 241.31C87.7201 242.36 87.7202 243.31 87.6602 244.09C87.6381 244.773 87.5065 245.449 87.2701 246.09C86.9497 246.931 86.3201 247.618 85.5101 248.01C84.8065 248.383 84.0262 248.588 83.2301 248.61C82.1476 248.553 81.1142 248.14 80.2911 247.435C79.4681 246.729 78.9017 245.771 78.6802 244.71L71.1501 246.55C71.905 249.223 73.4574 251.602 75.6001 253.37C77.8878 255.125 80.7193 256.02 83.6001 255.9C85.7137 255.926 87.8035 255.453 89.7001 254.52C91.6013 253.534 93.1571 251.992 94.1602 250.1C94.645 249.276 94.9991 248.382 95.2101 247.45C95.3975 246.549 95.4946 245.631 95.5001 244.71C95.5001 243.71 95.5001 242.59 95.5001 241.27V213.78H87.7501L87.7201 241.31Z" fill="#353A36"/>
<path d="M121.82 247.81C121.293 248.036 120.743 248.204 120.18 248.31C119.78 248.38 119.39 248.44 119 248.48C118.588 248.521 118.174 248.541 117.76 248.54C116.637 248.527 115.523 248.352 114.45 248.02C113.388 247.753 112.441 247.149 111.75 246.3C111.386 245.786 111.081 245.232 110.84 244.65C110.574 243.972 110.445 243.248 110.46 242.52C110.456 241.888 110.54 241.259 110.71 240.65C110.867 240.128 111.107 239.635 111.42 239.19C111.651 238.889 111.92 238.621 112.22 238.39C112.525 238.138 112.861 237.926 113.22 237.76L123.1 247.05C122.684 247.349 122.239 247.604 121.77 247.81M132.54 243.5C132.54 242.5 132.59 241.62 132.59 240.74V232.88H126V239.93L116.73 231.16L115.23 229.73C114.75 229.27 114.35 228.87 114.04 228.52C113.605 228.047 113.21 227.539 112.86 227C112.49 226.368 112.313 225.641 112.35 224.91C112.316 224.055 112.528 223.208 112.96 222.47C113.415 221.776 114.061 221.227 114.82 220.89C115.703 220.494 116.663 220.299 117.63 220.32C118.33 220.322 119.028 220.403 119.71 220.56C120.423 220.721 121.069 221.098 121.56 221.64C122.124 222.214 122.531 222.923 122.74 223.7L130.32 222.15C130.105 221.169 129.769 220.218 129.32 219.32C128.843 218.384 128.234 217.522 127.51 216.76C126.351 215.45 124.868 214.468 123.21 213.91C121.501 213.325 119.706 213.031 117.9 213.04C116.954 213.039 116.009 213.095 115.07 213.21C114.082 213.322 113.112 213.554 112.18 213.9C109.951 214.657 108.032 216.125 106.72 218.08C105.382 220.059 104.684 222.401 104.72 224.79C104.691 226.162 104.95 227.524 105.48 228.79C106.059 230.069 106.824 231.255 107.75 232.31C107.39 232.59 107.04 232.9 106.68 233.21C106.324 233.52 105.99 233.854 105.68 234.21C104.702 235.387 103.968 236.747 103.52 238.21C103.048 239.735 102.812 241.323 102.82 242.92C102.856 244.503 103.136 246.072 103.65 247.57C104.172 249.045 104.977 250.404 106.02 251.57C107.378 253.07 109.1 254.193 111.02 254.83C113.084 255.514 115.246 255.852 117.42 255.83C118.1 255.83 118.76 255.83 119.42 255.77C120.08 255.71 120.8 255.65 121.58 255.54C122.849 255.322 124.083 254.935 125.25 254.39C126.487 253.813 127.636 253.062 128.66 252.16L132.36 255.77L137.25 250.44L132.31 245.79C132.478 245 132.571 244.197 132.59 243.39" fill="#353A36"/>
<path d="M141.74 255.08H149.38V238.33H163.08V230.53H149.38V221.58H166.45V213.78H141.74V255.08Z" fill="#353A36"/>
<path d="M57.0302 72.25H0.0800781V130.41H57.0302V72.25Z" fill="#001489"/>
<path d="M71.1501 0L128.1 58.16V0H71.1501Z" fill="#001489"/>
<path d="M128.1 130.41V72.25H71.1501L128.1 130.41Z" fill="#001489"/>
<path d="M0.0800781 202.9C31.5201 202.9 57.0201 176.9 57.0201 144.74H0.0800781V202.9Z" fill="#001489"/>
</svg>
