<svg width="411" height="411" viewBox="0 0 411 411" fill="none" xmlns="http://www.w3.org/2000/svg">
<path d="M94.25 295C94.25 285.91 99.38 280.18 107.4 280.18C113.91 280.18 118.82 284.18 119.58 290.18H115.16C114.795 288.412 113.815 286.83 112.395 285.715C110.974 284.6 109.205 284.024 107.4 284.09C102.19 284.09 98.8 288.36 98.8 295.01C98.8 301.66 102.15 305.95 107.42 305.95C111.42 305.95 114.26 303.95 115.16 300.44H119.6C118.5 306.37 114.01 309.85 107.4 309.85C99.34 309.87 94.25 304.18 94.25 295Z" fill="#001489"/>
<path d="M122.15 298.93C122.15 292.21 126.15 288.09 132.08 288.09C138.01 288.09 142.01 292.21 142.01 298.93C142.01 305.65 138.07 309.79 132.08 309.79C126.09 309.79 122.15 305.68 122.15 298.93ZM137.63 298.93C137.63 294.29 135.45 291.63 132.08 291.63C128.71 291.63 126.53 294.29 126.53 298.93C126.53 303.57 128.72 306.25 132.08 306.25C135.44 306.25 137.63 303.59 137.63 298.93Z" fill="#001489"/>
<path d="M145.33 288.46H149.42V292H149.52C149.998 290.813 150.831 289.803 151.905 289.109C152.979 288.414 154.242 288.069 155.52 288.12C156.815 288.04 158.099 288.402 159.162 289.147C160.225 289.892 161.003 290.975 161.37 292.22H161.47C162.019 290.958 162.936 289.892 164.101 289.16C165.266 288.429 166.625 288.066 168 288.12C172.14 288.12 174.84 290.86 174.84 295.02V309.41H170.53V296C170.53 293.3 169.07 291.75 166.53 291.75C165.942 291.739 165.358 291.85 164.814 292.077C164.271 292.304 163.781 292.64 163.375 293.066C162.969 293.492 162.656 293.998 162.455 294.551C162.255 295.104 162.171 295.693 162.21 296.28V309.36H157.99V295.69C158.03 295.157 157.953 294.622 157.766 294.122C157.578 293.622 157.283 293.168 156.903 292.794C156.522 292.419 156.064 292.131 155.561 291.951C155.058 291.771 154.522 291.702 153.99 291.75C153.391 291.751 152.799 291.876 152.25 292.115C151.701 292.354 151.208 292.703 150.799 293.141C150.39 293.579 150.076 294.095 149.875 294.659C149.674 295.223 149.59 295.823 149.63 296.42V309.36H145.34L145.33 288.46Z" fill="#001489"/>
<path d="M196.87 309.4H192.75V305.85H192.65C192.107 307.095 191.191 308.14 190.029 308.843C188.866 309.545 187.514 309.869 186.16 309.77C181.61 309.77 178.82 306.77 178.82 302.01V288.46H183.12V301.18C183.12 304.36 184.63 306.07 187.6 306.07C190.57 306.07 192.6 303.92 192.6 300.66V288.46H196.9L196.87 309.4Z" fill="#001489"/>
<path d="M201.1 288.46H205.2V292H205.3C205.884 290.772 206.823 289.747 207.997 289.059C209.17 288.37 210.523 288.05 211.88 288.14C216.5 288.14 219.15 291.08 219.15 295.88V309.43H214.83V296.71C214.83 293.57 213.36 291.84 210.37 291.84C207.38 291.84 205.37 293.99 205.37 297.23V309.43H201.07L201.1 288.46Z" fill="#001489"/>
<path d="M223.08 283C223.07 282.503 223.209 282.015 223.478 281.597C223.747 281.179 224.134 280.851 224.591 280.654C225.047 280.457 225.552 280.401 226.04 280.493C226.529 280.584 226.979 280.819 227.333 281.168C227.687 281.516 227.93 281.963 228.029 282.45C228.129 282.937 228.081 283.442 227.891 283.902C227.702 284.361 227.38 284.754 226.967 285.03C226.553 285.306 226.067 285.452 225.57 285.45C225.245 285.454 224.923 285.394 224.622 285.272C224.321 285.151 224.046 284.971 223.815 284.744C223.583 284.516 223.399 284.245 223.273 283.945C223.147 283.646 223.081 283.325 223.08 283ZM223.42 288.51H227.71V309.45H223.42V288.51Z" fill="#001489"/>
<path d="M231.17 298.93C231.17 292.32 234.68 288.13 239.93 288.13C241.272 288.083 242.601 288.417 243.761 289.093C244.922 289.769 245.868 290.759 246.49 291.95H246.57V280.68H250.89V309.4H246.71V305.84H246.63C246.001 307.053 245.042 308.064 243.864 308.756C242.686 309.447 241.336 309.792 239.97 309.75C234.68 309.75 231.17 305.54 231.17 298.93ZM235.57 298.93C235.57 303.35 237.7 306.11 241.1 306.11C244.5 306.11 246.61 303.31 246.61 298.93C246.61 294.55 244.41 291.75 241.1 291.75C237.79 291.75 235.57 294.53 235.57 298.93V298.93Z" fill="#001489"/>
<path d="M254.45 303.45C254.45 299.79 257.25 297.54 262.23 297.26L267.96 296.92V295.31C267.96 292.98 266.38 291.59 263.76 291.59C261.14 291.59 259.76 292.78 259.34 294.65H255.28C255.52 290.87 258.74 288.09 263.92 288.09C269.1 288.09 272.23 290.77 272.23 294.97V309.4H268.12V306H268.02C267.36 307.168 266.399 308.137 265.236 308.805C264.073 309.474 262.752 309.818 261.41 309.8C257.31 309.75 254.45 307.21 254.45 303.45ZM267.96 301.56V299.91L262.8 300.22C260.24 300.4 258.8 301.54 258.8 303.33C258.8 305.12 260.32 306.33 262.62 306.33C265.61 306.35 268 304.28 268 301.56H267.96Z" fill="#001489"/>
<path d="M275.45 298.93C275.45 292.32 278.95 288.13 284.2 288.13C285.544 288.082 286.874 288.416 288.037 289.092C289.199 289.768 290.147 290.758 290.77 291.95H290.85V280.68H295.17V309.4H291V305.84H290.92C290.291 307.055 289.33 308.066 288.15 308.758C286.97 309.45 285.618 309.794 284.25 309.75C279 309.75 275.45 305.54 275.45 298.93ZM279.85 298.93C279.85 303.35 281.98 306.11 285.38 306.11C288.78 306.11 290.89 303.31 290.89 298.93C290.89 294.55 288.68 291.75 285.38 291.75C282.08 291.75 279.85 294.53 279.85 298.93V298.93Z" fill="#001489"/>
<path d="M317.5 303.25C316.91 307.07 313.29 309.79 308.5 309.79C302.35 309.79 298.63 305.64 298.63 299.03C298.63 292.42 302.41 288.09 308.32 288.09C314.23 288.09 317.75 292.19 317.75 298.53V300H303V300.26C303 303.91 305.19 306.26 308.63 306.26C311.08 306.26 312.89 305.03 313.47 303.2L317.5 303.25ZM303 297H313.47C313.37 293.8 311.34 291.55 308.33 291.55C305.32 291.55 303.2 293.84 303 297Z" fill="#001489"/>
<path d="M129 356.87C120.78 356.87 115.61 351.12 115.61 341.87C115.61 332.82 120.76 327.17 128.94 327.17C135.33 327.17 140.16 330.95 141.16 336.68H136.58C136.141 335.016 135.146 333.551 133.759 332.531C132.373 331.51 130.68 330.995 128.96 331.07C123.47 331.07 120.17 335.07 120.17 341.83C120.17 348.59 123.57 352.93 129.04 352.93C133.7 352.93 136.92 349.93 136.98 345.59V345.09H129.56V341.49H141.38V344.42C141.35 352.24 136.75 356.87 129 356.87Z" fill="#001489"/>
<path d="M163.12 350.25C162.53 354.07 158.91 356.79 154.12 356.79C147.97 356.79 144.25 352.64 144.25 346.03C144.25 339.42 148.03 335.09 153.94 335.09C159.85 335.09 163.37 339.19 163.37 345.53V347H148.59V347.26C148.59 350.91 150.78 353.26 154.22 353.26C156.67 353.26 158.48 352.03 159.06 350.2L163.12 350.25ZM148.6 344H159.07C158.97 340.8 156.94 338.55 153.93 338.55C150.92 338.55 148.82 340.84 148.6 344Z" fill="#001489"/>
<path d="M166.68 335.46H170.78V339H170.88C171.134 337.872 171.771 336.867 172.682 336.156C173.594 335.445 174.724 335.072 175.88 335.1C176.374 335.106 176.866 335.159 177.35 335.26V339.26C176.722 339.086 176.071 339.009 175.42 339.03C172.66 339.03 170.95 340.88 170.95 343.84V356.38H166.65L166.68 335.46Z" fill="#001489"/>
<path d="M180.05 335.46H184.14V339H184.24C184.718 337.813 185.551 336.803 186.625 336.109C187.699 335.414 188.962 335.069 190.24 335.12C191.535 335.04 192.819 335.402 193.882 336.147C194.945 336.892 195.723 337.975 196.09 339.22H196.19C196.739 337.958 197.656 336.892 198.821 336.16C199.986 335.429 201.345 335.066 202.72 335.12C206.86 335.12 209.56 337.86 209.56 342.02V356.41H205.25V343C205.25 340.3 203.79 338.75 201.25 338.75C200.662 338.739 200.078 338.85 199.534 339.077C198.991 339.304 198.501 339.64 198.095 340.066C197.689 340.492 197.376 340.998 197.175 341.551C196.975 342.104 196.891 342.693 196.93 343.28V356.36H192.71V342.69C192.75 342.157 192.673 341.622 192.486 341.122C192.298 340.622 192.003 340.168 191.623 339.794C191.242 339.419 190.784 339.131 190.281 338.951C189.778 338.771 189.242 338.702 188.71 338.75C188.111 338.751 187.519 338.876 186.97 339.115C186.421 339.354 185.927 339.703 185.519 340.141C185.11 340.579 184.796 341.095 184.595 341.659C184.394 342.223 184.31 342.823 184.35 343.42V356.36H180.06L180.05 335.46Z" fill="#001489"/>
<path d="M213.44 330C213.43 329.503 213.568 329.015 213.838 328.597C214.107 328.179 214.494 327.851 214.95 327.654C215.407 327.457 215.912 327.401 216.4 327.493C216.889 327.584 217.339 327.819 217.693 328.168C218.047 328.516 218.289 328.963 218.389 329.45C218.488 329.937 218.44 330.442 218.251 330.902C218.062 331.361 217.74 331.754 217.327 332.03C216.913 332.306 216.427 332.452 215.93 332.45C215.606 332.453 215.284 332.391 214.983 332.27C214.683 332.148 214.409 331.968 214.178 331.741C213.946 331.513 213.762 331.242 213.636 330.944C213.509 330.645 213.443 330.324 213.44 330ZM213.78 335.51H218.08V356.45H213.78V335.51Z" fill="#001489"/>
<path d="M222.47 335.46H226.57V339H226.67C227.255 337.77 228.196 336.744 229.371 336.056C230.546 335.367 231.901 335.048 233.26 335.14C237.87 335.14 240.52 338.08 240.52 342.88V356.43H236.2V343.71C236.2 340.57 234.73 338.84 231.74 338.84C228.75 338.84 226.74 340.99 226.74 344.23V356.43H222.44L222.47 335.46Z" fill="#001489"/>
<path d="M243.81 350.45C243.81 346.79 246.62 344.54 251.59 344.26L257.33 343.92V342.31C257.33 339.98 255.75 338.59 253.13 338.59C250.51 338.59 249.13 339.78 248.71 341.65H244.65C244.89 337.87 248.11 335.09 253.29 335.09C258.47 335.09 261.6 337.77 261.6 341.97V356.4H257.48V353H257.38C256.722 354.167 255.762 355.136 254.601 355.804C253.439 356.473 252.12 356.817 250.78 356.8C246.68 356.75 243.81 354.21 243.81 350.45ZM257.33 348.56V346.91L252.17 347.22C249.61 347.4 248.17 348.54 248.17 350.33C248.17 352.12 249.68 353.33 251.99 353.33C255 353.35 257.33 351.28 257.33 348.56Z" fill="#001489"/>
<path d="M265.75 335.46H269.85V339H269.95C270.204 337.872 270.841 336.867 271.753 336.156C272.664 335.445 273.794 335.072 274.95 335.1C275.444 335.107 275.936 335.161 276.42 335.26V339.26C275.792 339.088 275.141 339.01 274.49 339.03C271.72 339.03 270.01 340.88 270.01 343.84V356.38H265.71L265.75 335.46Z" fill="#001489"/>
<path d="M296.17 350.25C295.58 354.07 291.95 356.79 287.17 356.79C281.02 356.79 277.3 352.64 277.3 346.03C277.3 339.42 281.08 335.09 286.99 335.09C292.9 335.09 296.42 339.19 296.42 345.53V347H281.64V347.26C281.64 350.91 283.83 353.26 287.27 353.26C289.71 353.26 291.53 352.03 292.1 350.2L296.17 350.25ZM281.65 344H292.11C292.01 340.8 289.98 338.55 286.98 338.55C283.98 338.55 281.87 340.84 281.65 344Z" fill="#001489"/>
<path d="M149.79 194.72C149.473 194.411 149.048 194.239 148.605 194.239C148.163 194.239 147.737 194.411 147.42 194.72L145.62 196.49L143.83 194.72C143.51 194.413 143.084 194.242 142.64 194.242C142.197 194.242 141.77 194.413 141.45 194.72C141.296 194.873 141.174 195.056 141.09 195.256C141.007 195.457 140.964 195.673 140.964 195.89C140.964 196.107 141.007 196.323 141.09 196.524C141.174 196.724 141.296 196.907 141.45 197.06L143.25 198.83L141.45 200.6C141.296 200.752 141.174 200.934 141.091 201.134C141.007 201.334 140.964 201.548 140.964 201.765C140.964 201.982 141.007 202.196 141.091 202.396C141.174 202.596 141.296 202.778 141.45 202.93C141.768 203.242 142.195 203.416 142.64 203.416C143.085 203.416 143.512 203.242 143.83 202.93L145.62 201.17L147.42 202.93C147.735 203.243 148.161 203.419 148.605 203.419C149.049 203.419 149.475 203.243 149.79 202.93C149.947 202.779 150.071 202.598 150.156 202.398C150.241 202.198 150.284 201.982 150.284 201.765C150.284 201.548 150.241 201.332 150.156 201.132C150.071 200.932 149.947 200.751 149.79 200.6L148 198.83L149.79 197.06C149.947 196.908 150.071 196.726 150.156 196.525C150.241 196.324 150.285 196.108 150.285 195.89C150.285 195.672 150.241 195.456 150.156 195.255C150.071 195.054 149.947 194.872 149.79 194.72V194.72Z" fill="#001489"/>
<path d="M149.79 207.62C149.475 207.307 149.049 207.131 148.605 207.131C148.161 207.131 147.735 207.307 147.42 207.62L145.62 209.39L143.83 207.62C143.512 207.309 143.085 207.134 142.64 207.134C142.195 207.134 141.768 207.309 141.45 207.62C141.296 207.773 141.174 207.956 141.09 208.156C141.007 208.357 140.964 208.573 140.964 208.79C140.964 209.008 141.007 209.223 141.09 209.424C141.174 209.624 141.296 209.807 141.45 209.96L143.25 211.72L141.45 213.49C141.296 213.643 141.174 213.826 141.09 214.026C141.007 214.227 140.964 214.443 140.964 214.66C140.964 214.877 141.007 215.093 141.09 215.294C141.174 215.494 141.296 215.677 141.45 215.83C141.768 216.141 142.195 216.316 142.64 216.316C143.085 216.316 143.512 216.141 143.83 215.83L145.62 214.06L147.42 215.83C147.735 216.143 148.161 216.319 148.605 216.319C149.049 216.319 149.475 216.143 149.79 215.83C149.947 215.678 150.071 215.496 150.156 215.295C150.241 215.094 150.285 214.878 150.285 214.66C150.285 214.442 150.241 214.226 150.156 214.025C150.071 213.824 149.947 213.642 149.79 213.49L148 211.72L149.79 209.96C149.947 209.808 150.071 209.626 150.156 209.425C150.241 209.224 150.285 209.008 150.285 208.79C150.285 208.572 150.241 208.356 150.156 208.155C150.071 207.954 149.947 207.772 149.79 207.62V207.62Z" fill="#001489"/>
<path d="M149.79 181.82C149.473 181.512 149.048 181.339 148.605 181.339C148.163 181.339 147.737 181.512 147.42 181.82L145.62 183.59L143.83 181.82C143.51 181.513 143.084 181.342 142.64 181.342C142.197 181.342 141.77 181.513 141.45 181.82C141.296 181.973 141.174 182.156 141.09 182.356C141.007 182.557 140.964 182.773 140.964 182.99C140.964 183.207 141.007 183.423 141.09 183.624C141.174 183.824 141.296 184.007 141.45 184.16L143.25 185.93L141.45 187.7C141.296 187.853 141.174 188.036 141.09 188.236C141.007 188.437 140.964 188.653 140.964 188.87C140.964 189.087 141.007 189.303 141.09 189.504C141.174 189.704 141.296 189.887 141.45 190.04C141.77 190.347 142.197 190.518 142.64 190.518C143.084 190.518 143.51 190.347 143.83 190.04L145.62 188.27L147.42 190.04C147.737 190.349 148.163 190.521 148.605 190.521C149.048 190.521 149.473 190.349 149.79 190.04C149.947 189.888 150.071 189.706 150.156 189.505C150.241 189.304 150.285 189.088 150.285 188.87C150.285 188.652 150.241 188.436 150.156 188.235C150.071 188.034 149.947 187.852 149.79 187.7L148 185.93L149.79 184.16C149.947 184.008 150.071 183.826 150.156 183.625C150.241 183.424 150.285 183.208 150.285 182.99C150.285 182.772 150.241 182.556 150.156 182.355C150.071 182.154 149.947 181.972 149.79 181.82V181.82Z" fill="#001489"/>
<path d="M160.48 246.31L159.3 247.47C160.225 248.134 161.183 248.752 162.17 249.32L162.86 248.65C163.014 248.497 163.137 248.314 163.22 248.114C163.304 247.913 163.347 247.697 163.347 247.48C163.347 247.263 163.304 247.047 163.22 246.846C163.137 246.646 163.014 246.463 162.86 246.31C162.542 245.999 162.115 245.824 161.67 245.824C161.225 245.824 160.798 245.999 160.48 246.31V246.31Z" fill="#001489"/>
<path d="M149.79 220.51C149.473 220.202 149.048 220.029 148.605 220.029C148.163 220.029 147.737 220.202 147.42 220.51L145.62 222.28L143.83 220.51C143.51 220.203 143.084 220.032 142.64 220.032C142.197 220.032 141.77 220.203 141.45 220.51C141.296 220.663 141.174 220.846 141.09 221.046C141.007 221.247 140.964 221.463 140.964 221.68C140.964 221.898 141.007 222.113 141.09 222.314C141.174 222.514 141.296 222.697 141.45 222.85L143.25 224.62L141.45 226.39C141.296 226.543 141.174 226.726 141.09 226.926C141.007 227.127 140.964 227.343 140.964 227.56C140.964 227.778 141.007 227.993 141.09 228.194C141.174 228.394 141.296 228.577 141.45 228.73C141.77 229.037 142.197 229.208 142.64 229.208C143.084 229.208 143.51 229.037 143.83 228.73L145.62 226.96L147.42 228.73C147.737 229.038 148.163 229.211 148.605 229.211C149.048 229.211 149.473 229.038 149.79 228.73C149.947 228.578 150.071 228.396 150.156 228.195C150.241 227.994 150.285 227.778 150.285 227.56C150.285 227.342 150.241 227.126 150.156 226.925C150.071 226.724 149.947 226.542 149.79 226.39L148 224.62L149.79 222.85C149.947 222.698 150.071 222.516 150.156 222.315C150.241 222.114 150.285 221.898 150.285 221.68C150.285 221.462 150.241 221.246 150.156 221.045C150.071 220.844 149.947 220.662 149.79 220.51V220.51Z" fill="#001489"/>
<path d="M136.73 207.62C136.415 207.307 135.989 207.131 135.545 207.131C135.101 207.131 134.675 207.307 134.36 207.62L132.56 209.39L130.77 207.62C130.452 207.309 130.025 207.134 129.58 207.134C129.135 207.134 128.708 207.309 128.39 207.62C128.284 207.721 128.196 207.839 128.13 207.97L129.24 210.8L130.24 211.72L129.87 212.09C130.52 213.62 131.36 215.3 131.36 215.3L132.61 214.06L134.41 215.83C134.725 216.143 135.151 216.319 135.595 216.319C136.039 216.319 136.465 216.143 136.78 215.83C136.937 215.678 137.061 215.496 137.146 215.295C137.231 215.094 137.275 214.878 137.275 214.66C137.275 214.442 137.231 214.226 137.146 214.025C137.061 213.824 136.937 213.642 136.78 213.49L134.99 211.72L136.78 209.96C136.934 209.805 137.054 209.62 137.135 209.417C137.216 209.215 137.255 208.998 137.25 208.779C137.246 208.561 137.197 208.346 137.108 208.147C137.019 207.948 136.89 207.769 136.73 207.62Z" fill="#001489"/>
<path d="M134.36 220.51L134.2 220.66C134.96 221.91 136 223.58 136 223.58L136.73 222.85C136.887 222.698 137.011 222.516 137.096 222.315C137.181 222.114 137.225 221.898 137.225 221.68C137.225 221.462 137.181 221.246 137.096 221.045C137.011 220.844 136.887 220.662 136.73 220.51C136.413 220.202 135.988 220.029 135.545 220.029C135.103 220.029 134.678 220.202 134.36 220.51V220.51Z" fill="#001489"/>
<path d="M162.86 233.41C162.54 233.103 162.114 232.932 161.67 232.932C161.227 232.932 160.8 233.103 160.48 233.41L158.69 235.18L156.89 233.41C156.57 233.103 156.143 232.932 155.7 232.932C155.256 232.932 154.83 233.103 154.51 233.41C154.356 233.563 154.233 233.746 154.15 233.946C154.066 234.147 154.023 234.362 154.023 234.58C154.023 234.797 154.066 235.013 154.15 235.214C154.233 235.414 154.356 235.597 154.51 235.75L156.31 237.52L154.51 239.29C154.356 239.443 154.233 239.626 154.15 239.826C154.066 240.027 154.023 240.242 154.023 240.46C154.023 240.677 154.066 240.893 154.15 241.094C154.233 241.294 154.356 241.477 154.51 241.63C154.83 241.937 155.256 242.108 155.7 242.108C156.143 242.108 156.57 241.937 156.89 241.63L158.69 239.86L160.48 241.63C160.8 241.937 161.227 242.108 161.67 242.108C162.114 242.108 162.54 241.937 162.86 241.63C163.014 241.477 163.137 241.294 163.22 241.094C163.304 240.893 163.347 240.677 163.347 240.46C163.347 240.242 163.304 240.027 163.22 239.826C163.137 239.626 163.014 239.443 162.86 239.29L161.06 237.52L162.86 235.75C163.014 235.597 163.137 235.414 163.22 235.214C163.304 235.013 163.347 234.797 163.347 234.58C163.347 234.362 163.304 234.147 163.22 233.946C163.137 233.746 163.014 233.563 162.86 233.41V233.41Z" fill="#001489"/>
<path d="M136.73 181.82C136.413 181.512 135.988 181.339 135.545 181.339C135.103 181.339 134.677 181.512 134.36 181.82L132.56 183.59L130.77 181.82C130.45 181.513 130.024 181.342 129.58 181.342C129.137 181.342 128.71 181.513 128.39 181.82C128.236 181.973 128.114 182.156 128.03 182.356C127.947 182.557 127.904 182.773 127.904 182.99C127.904 183.207 127.947 183.423 128.03 183.624C128.114 183.824 128.236 184.007 128.39 184.16L130.19 185.93L128.39 187.7C128.236 187.853 128.114 188.036 128.03 188.236C127.947 188.437 127.904 188.653 127.904 188.87C127.904 189.087 127.947 189.303 128.03 189.504C128.114 189.704 128.236 189.887 128.39 190.04C128.71 190.347 129.137 190.518 129.58 190.518C130.024 190.518 130.45 190.347 130.77 190.04L132.56 188.27L134.36 190.04C134.677 190.349 135.103 190.521 135.545 190.521C135.988 190.521 136.413 190.349 136.73 190.04C136.887 189.888 137.011 189.706 137.096 189.505C137.181 189.304 137.225 189.088 137.225 188.87C137.225 188.652 137.181 188.436 137.096 188.235C137.011 188.034 136.887 187.852 136.73 187.7L134.94 185.93L136.73 184.16C136.887 184.008 137.011 183.826 137.096 183.625C137.181 183.424 137.225 183.208 137.225 182.99C137.225 182.772 137.181 182.556 137.096 182.355C137.011 182.154 136.887 181.972 136.73 181.82Z" fill="#001489"/>
<path d="M149.79 233.41C149.473 233.102 149.048 232.929 148.605 232.929C148.162 232.929 147.737 233.102 147.42 233.41L145.62 235.18L143.83 233.41C143.61 233.199 143.337 233.05 143.04 232.98C145.197 235.688 147.623 238.171 150.28 240.39C150.276 240.183 150.23 239.979 150.146 239.791C150.062 239.602 149.941 239.431 149.79 239.29L148 237.52L149.79 235.75C149.947 235.598 150.071 235.416 150.156 235.215C150.241 235.014 150.285 234.798 150.285 234.58C150.285 234.362 150.241 234.146 150.156 233.945C150.071 233.744 149.947 233.562 149.79 233.41V233.41Z" fill="#001489"/>
<path d="M136.73 194.72C136.413 194.411 135.988 194.239 135.545 194.239C135.103 194.239 134.677 194.411 134.36 194.72L132.56 196.49L130.77 194.72C130.45 194.413 130.024 194.242 129.58 194.242C129.137 194.242 128.71 194.413 128.39 194.72C128.236 194.873 128.114 195.056 128.03 195.256C127.947 195.457 127.904 195.673 127.904 195.89C127.904 196.107 127.947 196.323 128.03 196.524C128.114 196.724 128.236 196.907 128.39 197.06L130.19 198.83L128.39 200.6C128.236 200.752 128.114 200.934 128.031 201.134C127.947 201.334 127.904 201.548 127.904 201.765C127.904 201.982 127.947 202.196 128.031 202.396C128.114 202.596 128.236 202.778 128.39 202.93C128.708 203.242 129.135 203.416 129.58 203.416C130.025 203.416 130.452 203.242 130.77 202.93L132.56 201.17L134.36 202.93C134.675 203.243 135.101 203.419 135.545 203.419C135.989 203.419 136.415 203.243 136.73 202.93C136.886 202.779 137.011 202.598 137.096 202.398C137.181 202.198 137.224 201.982 137.224 201.765C137.224 201.548 137.181 201.332 137.096 201.132C137.011 200.932 136.886 200.751 136.73 200.6L134.94 198.83L136.73 197.06C136.887 196.908 137.011 196.726 137.096 196.525C137.181 196.324 137.225 196.108 137.225 195.89C137.225 195.672 137.181 195.456 137.096 195.255C137.011 195.054 136.887 194.872 136.73 194.72V194.72Z" fill="#001489"/>
<path d="M162.86 194.72C162.54 194.413 162.114 194.242 161.67 194.242C161.227 194.242 160.8 194.413 160.48 194.72L158.69 196.49L156.89 194.72C156.57 194.413 156.143 194.242 155.7 194.242C155.256 194.242 154.83 194.413 154.51 194.72C154.356 194.873 154.233 195.056 154.15 195.256C154.066 195.457 154.023 195.673 154.023 195.89C154.023 196.107 154.066 196.323 154.15 196.524C154.233 196.724 154.356 196.907 154.51 197.06L156.31 198.83L154.51 200.6C154.356 200.752 154.234 200.934 154.151 201.134C154.067 201.334 154.024 201.548 154.024 201.765C154.024 201.982 154.067 202.196 154.151 202.396C154.234 202.596 154.356 202.778 154.51 202.93C154.828 203.242 155.255 203.416 155.7 203.416C156.145 203.416 156.572 203.242 156.89 202.93L158.69 201.17L160.48 202.93C160.798 203.242 161.225 203.416 161.67 203.416C162.115 203.416 162.542 203.242 162.86 202.93C163.014 202.778 163.136 202.596 163.219 202.396C163.303 202.196 163.346 201.982 163.346 201.765C163.346 201.548 163.303 201.334 163.219 201.134C163.136 200.934 163.014 200.752 162.86 200.6L161.06 198.83L162.86 197.06C163.014 196.907 163.137 196.724 163.22 196.524C163.304 196.323 163.347 196.107 163.347 195.89C163.347 195.673 163.304 195.457 163.22 195.256C163.137 195.056 163.014 194.873 162.86 194.72V194.72Z" fill="#001489"/>
<path d="M202 233.41C201.68 233.103 201.254 232.932 200.81 232.932C200.367 232.932 199.94 233.103 199.62 233.41L197.83 235.18L196.04 233.41C195.72 233.103 195.294 232.932 194.85 232.932C194.407 232.932 193.98 233.103 193.66 233.41C193.504 233.562 193.379 233.744 193.294 233.945C193.209 234.146 193.165 234.362 193.165 234.58C193.165 234.798 193.209 235.014 193.294 235.215C193.379 235.416 193.504 235.598 193.66 235.75L195.45 237.52L193.66 239.29C193.504 239.442 193.379 239.624 193.294 239.825C193.209 240.026 193.165 240.242 193.165 240.46C193.165 240.678 193.209 240.894 193.294 241.095C193.379 241.296 193.504 241.478 193.66 241.63C193.98 241.937 194.407 242.108 194.85 242.108C195.294 242.108 195.72 241.937 196.04 241.63L197.83 239.86L199.62 241.63C199.94 241.937 200.367 242.108 200.81 242.108C201.254 242.108 201.68 241.937 202 241.63C202.157 241.478 202.281 241.296 202.366 241.095C202.451 240.894 202.495 240.678 202.495 240.46C202.495 240.242 202.451 240.026 202.366 239.825C202.281 239.624 202.157 239.442 202 239.29L200.21 237.52L202 235.75C202.157 235.598 202.281 235.416 202.366 235.215C202.451 235.014 202.495 234.798 202.495 234.58C202.495 234.362 202.451 234.146 202.366 233.945C202.281 233.744 202.157 233.562 202 233.41V233.41Z" fill="#001489"/>
<path d="M202 220.51C201.68 220.203 201.254 220.032 200.81 220.032C200.367 220.032 199.94 220.203 199.62 220.51L197.83 222.28L196.04 220.51C195.72 220.203 195.294 220.032 194.85 220.032C194.407 220.032 193.98 220.203 193.66 220.51C193.504 220.662 193.379 220.844 193.294 221.045C193.209 221.246 193.165 221.462 193.165 221.68C193.165 221.898 193.209 222.114 193.294 222.315C193.379 222.516 193.504 222.698 193.66 222.85L195.45 224.62L193.66 226.39C193.504 226.542 193.379 226.724 193.294 226.925C193.209 227.126 193.165 227.342 193.165 227.56C193.165 227.778 193.209 227.994 193.294 228.195C193.379 228.396 193.504 228.578 193.66 228.73C193.98 229.037 194.407 229.208 194.85 229.208C195.294 229.208 195.72 229.037 196.04 228.73L197.83 226.96L199.62 228.73C199.94 229.037 200.367 229.208 200.81 229.208C201.254 229.208 201.68 229.037 202 228.73C202.157 228.578 202.281 228.396 202.366 228.195C202.451 227.994 202.495 227.778 202.495 227.56C202.495 227.342 202.451 227.126 202.366 226.925C202.281 226.724 202.157 226.542 202 226.39L200.21 224.62L202 222.85C202.157 222.698 202.281 222.516 202.366 222.315C202.451 222.114 202.495 221.898 202.495 221.68C202.495 221.462 202.451 221.246 202.366 221.045C202.281 220.844 202.157 220.662 202 220.51V220.51Z" fill="#001489"/>
<path d="M202 246.31C201.682 245.999 201.255 245.824 200.81 245.824C200.365 245.824 199.938 245.999 199.62 246.31L197.83 248.08L196.04 246.31C195.722 245.999 195.295 245.824 194.85 245.824C194.405 245.824 193.978 245.999 193.66 246.31C193.504 246.462 193.379 246.644 193.294 246.845C193.209 247.046 193.165 247.262 193.165 247.48C193.165 247.698 193.209 247.914 193.294 248.115C193.379 248.316 193.504 248.498 193.66 248.65L195.45 250.41L193.66 252.18C193.504 252.332 193.379 252.514 193.294 252.715C193.209 252.916 193.165 253.132 193.165 253.35C193.165 253.568 193.209 253.784 193.294 253.985C193.379 254.186 193.504 254.368 193.66 254.52C193.978 254.832 194.405 255.006 194.85 255.006C195.295 255.006 195.722 254.832 196.04 254.52L197.83 252.75L199.62 254.52C199.938 254.832 200.365 255.006 200.81 255.006C201.255 255.006 201.682 254.832 202 254.52C202.157 254.368 202.281 254.186 202.366 253.985C202.451 253.784 202.495 253.568 202.495 253.35C202.495 253.132 202.451 252.916 202.366 252.715C202.281 252.514 202.157 252.332 202 252.18L200.21 250.41L202 248.65C202.157 248.498 202.281 248.316 202.366 248.115C202.451 247.914 202.495 247.698 202.495 247.48C202.495 247.262 202.451 247.046 202.366 246.845C202.281 246.644 202.157 246.462 202 246.31V246.31Z" fill="#001489"/>
<path d="M202 207.62C201.682 207.309 201.255 207.134 200.81 207.134C200.365 207.134 199.938 207.309 199.62 207.62L197.83 209.39L196.04 207.62C195.722 207.309 195.295 207.134 194.85 207.134C194.405 207.134 193.978 207.309 193.66 207.62C193.504 207.772 193.379 207.954 193.294 208.155C193.209 208.356 193.165 208.572 193.165 208.79C193.165 209.008 193.209 209.224 193.294 209.425C193.379 209.626 193.504 209.808 193.66 209.96L195.45 211.72L193.66 213.49C193.504 213.642 193.379 213.824 193.294 214.025C193.209 214.226 193.165 214.442 193.165 214.66C193.165 214.878 193.209 215.094 193.294 215.295C193.379 215.496 193.504 215.678 193.66 215.83C193.978 216.141 194.405 216.316 194.85 216.316C195.295 216.316 195.722 216.141 196.04 215.83L197.83 214.06L199.62 215.83C199.938 216.141 200.365 216.316 200.81 216.316C201.255 216.316 201.682 216.141 202 215.83C202.157 215.678 202.281 215.496 202.366 215.295C202.451 215.094 202.495 214.878 202.495 214.66C202.495 214.442 202.451 214.226 202.366 214.025C202.281 213.824 202.157 213.642 202 213.49L200.21 211.72L202 210C202.163 209.848 202.293 209.663 202.382 209.458C202.47 209.254 202.516 209.033 202.516 208.81C202.516 208.587 202.47 208.366 202.382 208.161C202.293 207.957 202.163 207.772 202 207.62V207.62Z" fill="#001489"/>
<path d="M197.87 261.08L198.18 260.77L197.5 260.71L197.87 261.08Z" fill="#001489"/>
<path d="M193.7 259.31C193.458 259.548 193.297 259.855 193.24 260.19C194.65 260.4 196.07 260.58 197.5 260.71L196.08 259.31C195.762 258.999 195.335 258.824 194.89 258.824C194.445 258.824 194.018 258.999 193.7 259.31V259.31Z" fill="#001489"/>
<path d="M199.66 259.31L198.18 260.77C199.59 260.89 201.01 260.98 202.43 261.03C202.537 260.736 202.557 260.418 202.488 260.113C202.419 259.808 202.263 259.529 202.04 259.31C201.722 258.999 201.295 258.824 200.85 258.824C200.405 258.824 199.978 258.999 199.66 259.31V259.31Z" fill="#001489"/>
<path d="M123.74 187.71C123.81 188.37 123.91 189.03 123.99 189.71C124.181 189.397 124.26 189.03 124.214 188.666C124.169 188.303 124.002 187.966 123.74 187.71V187.71Z" fill="#001489"/>
<path d="M123.73 181.82C123.613 181.706 123.478 181.611 123.33 181.54C123.33 182.54 123.4 183.47 123.47 184.42L123.73 184.16C123.887 184.008 124.011 183.826 124.096 183.625C124.181 183.424 124.225 183.208 124.225 182.99C124.225 182.772 124.181 182.556 124.096 182.355C124.011 182.154 123.887 181.972 123.73 181.82Z" fill="#001489"/>
<path d="M189 181.82C188.68 181.513 188.254 181.342 187.81 181.342C187.367 181.342 186.94 181.513 186.62 181.82L184.83 183.59L183.03 181.82C182.713 181.512 182.288 181.339 181.845 181.339C181.403 181.339 180.977 181.512 180.66 181.82C180.504 181.972 180.379 182.154 180.294 182.355C180.209 182.556 180.165 182.772 180.165 182.99C180.165 183.208 180.209 183.424 180.294 183.625C180.379 183.826 180.504 184.008 180.66 184.16L182.45 185.93L180.66 187.7C180.504 187.852 180.379 188.034 180.294 188.235C180.209 188.436 180.165 188.652 180.165 188.87C180.165 189.088 180.209 189.304 180.294 189.505C180.379 189.706 180.504 189.888 180.66 190.04C180.977 190.349 181.403 190.521 181.845 190.521C182.288 190.521 182.713 190.349 183.03 190.04L184.83 188.27L186.62 190.04C186.94 190.347 187.367 190.518 187.81 190.518C188.254 190.518 188.68 190.347 189 190.04C189.154 189.887 189.277 189.704 189.36 189.504C189.444 189.303 189.487 189.087 189.487 188.87C189.487 188.653 189.444 188.437 189.36 188.236C189.277 188.036 189.154 187.853 189 187.7L187.2 185.93L189 184.16C189.154 184.007 189.277 183.824 189.36 183.624C189.444 183.423 189.487 183.207 189.487 182.99C189.487 182.773 189.444 182.557 189.36 182.356C189.277 182.156 189.154 181.973 189 181.82V181.82Z" fill="#001489"/>
<path d="M205.84 261C227.17 260.987 247.663 252.699 263.005 237.88C278.346 223.06 287.339 202.867 288.09 181.55V181.55C288.16 180.17 288.2 178.79 288.2 177.4C288.2 132.56 251.39 96.21 205.99 96.21H205.51C204.68 96.21 203.86 96.21 203.04 96.27C181.791 96.985 161.643 105.894 146.815 121.13C131.986 136.367 123.628 156.749 123.49 178.01H205.8L205.84 261ZM205.84 101.56H206.03C248.45 101.56 282.83 135.56 282.83 177.41C282.83 177.62 282.83 177.82 282.83 178.03H205.83L205.84 101.56Z" fill="#001489"/>
<path d="M202 181.82C201.683 181.512 201.258 181.339 200.815 181.339C200.373 181.339 199.947 181.512 199.63 181.82L197.83 183.59L196.04 181.82C195.72 181.513 195.294 181.342 194.85 181.342C194.407 181.342 193.98 181.513 193.66 181.82C193.504 181.972 193.379 182.154 193.294 182.355C193.209 182.556 193.165 182.772 193.165 182.99C193.165 183.208 193.209 183.424 193.294 183.625C193.379 183.826 193.504 184.008 193.66 184.16L195.45 185.93L193.66 187.7C193.504 187.852 193.379 188.034 193.294 188.235C193.209 188.436 193.165 188.652 193.165 188.87C193.165 189.088 193.209 189.304 193.294 189.505C193.379 189.706 193.504 189.888 193.66 190.04C193.98 190.347 194.407 190.518 194.85 190.518C195.294 190.518 195.72 190.347 196.04 190.04L197.83 188.27L199.63 190.04C199.947 190.349 200.373 190.521 200.815 190.521C201.258 190.521 201.683 190.349 202 190.04C202.157 189.888 202.281 189.706 202.366 189.505C202.451 189.304 202.495 189.088 202.495 188.87C202.495 188.652 202.451 188.436 202.366 188.235C202.281 188.034 202.157 187.852 202 187.7L200.21 185.93L202 184.16C202.157 184.008 202.281 183.826 202.366 183.625C202.451 183.424 202.495 183.208 202.495 182.99C202.495 182.772 202.451 182.556 202.366 182.355C202.281 182.154 202.157 181.972 202 181.82V181.82Z" fill="#001489"/>
<path d="M202 194.72C201.68 194.413 201.254 194.242 200.81 194.242C200.367 194.242 199.94 194.413 199.62 194.72L197.83 196.49L196.04 194.72C195.72 194.413 195.294 194.242 194.85 194.242C194.407 194.242 193.98 194.413 193.66 194.72C193.504 194.872 193.379 195.054 193.294 195.255C193.209 195.456 193.165 195.672 193.165 195.89C193.165 196.108 193.209 196.324 193.294 196.525C193.379 196.726 193.504 196.908 193.66 197.06L195.45 198.83L193.66 200.6C193.504 200.751 193.379 200.932 193.295 201.132C193.21 201.332 193.166 201.548 193.166 201.765C193.166 201.982 193.21 202.198 193.295 202.398C193.379 202.598 193.504 202.779 193.66 202.93C193.978 203.242 194.405 203.416 194.85 203.416C195.295 203.416 195.722 203.242 196.04 202.93L197.83 201.17L199.62 202.93C199.938 203.242 200.365 203.416 200.81 203.416C201.255 203.416 201.682 203.242 202 202.93C202.156 202.779 202.281 202.598 202.366 202.398C202.451 202.198 202.494 201.982 202.494 201.765C202.494 201.548 202.451 201.332 202.366 201.132C202.281 200.932 202.156 200.751 202 200.6L200.21 198.83L202 197.06C202.157 196.908 202.281 196.726 202.366 196.525C202.451 196.324 202.495 196.108 202.495 195.89C202.495 195.672 202.451 195.456 202.366 195.255C202.281 195.054 202.157 194.872 202 194.72V194.72Z" fill="#001489"/>
<path d="M189 233.41C188.68 233.103 188.254 232.932 187.81 232.932C187.367 232.932 186.94 233.103 186.62 233.41L184.83 235.18L183.03 233.41C182.713 233.102 182.288 232.929 181.845 232.929C181.403 232.929 180.977 233.102 180.66 233.41C180.504 233.562 180.379 233.744 180.294 233.945C180.209 234.146 180.165 234.362 180.165 234.58C180.165 234.798 180.209 235.014 180.294 235.215C180.379 235.416 180.504 235.598 180.66 235.75L182.45 237.52L180.66 239.29C180.504 239.442 180.379 239.624 180.294 239.825C180.209 240.026 180.165 240.242 180.165 240.46C180.165 240.678 180.209 240.894 180.294 241.095C180.379 241.296 180.504 241.478 180.66 241.63C180.977 241.938 181.403 242.111 181.845 242.111C182.288 242.111 182.713 241.938 183.03 241.63L184.83 239.86L186.62 241.63C186.94 241.937 187.367 242.108 187.81 242.108C188.254 242.108 188.68 241.937 189 241.63C189.154 241.477 189.277 241.294 189.36 241.094C189.444 240.893 189.487 240.677 189.487 240.46C189.487 240.242 189.444 240.027 189.36 239.826C189.277 239.626 189.154 239.443 189 239.29L187.2 237.52L189 235.75C189.154 235.597 189.277 235.414 189.36 235.214C189.444 235.013 189.487 234.797 189.487 234.58C189.487 234.362 189.444 234.147 189.36 233.946C189.277 233.746 189.154 233.563 189 233.41Z" fill="#001489"/>
<path d="M189 194.72C188.68 194.413 188.254 194.242 187.81 194.242C187.367 194.242 186.94 194.413 186.62 194.72L184.83 196.49L183.03 194.72C182.713 194.411 182.288 194.239 181.845 194.239C181.403 194.239 180.977 194.411 180.66 194.72C180.504 194.872 180.379 195.054 180.294 195.255C180.209 195.456 180.165 195.672 180.165 195.89C180.165 196.108 180.209 196.324 180.294 196.525C180.379 196.726 180.504 196.908 180.66 197.06L182.45 198.83L180.66 200.6C180.504 200.751 180.379 200.932 180.295 201.132C180.21 201.332 180.166 201.548 180.166 201.765C180.166 201.982 180.21 202.198 180.295 202.398C180.379 202.598 180.504 202.779 180.66 202.93C180.975 203.243 181.401 203.419 181.845 203.419C182.289 203.419 182.715 203.243 183.03 202.93L184.83 201.17L186.62 202.93C186.938 203.242 187.365 203.416 187.81 203.416C188.255 203.416 188.682 203.242 189 202.93C189.154 202.778 189.276 202.596 189.359 202.396C189.443 202.196 189.486 201.982 189.486 201.765C189.486 201.548 189.443 201.334 189.359 201.134C189.276 200.934 189.154 200.752 189 200.6L187.2 198.83L189 197.06C189.154 196.907 189.277 196.724 189.36 196.524C189.444 196.323 189.487 196.107 189.487 195.89C189.487 195.673 189.444 195.457 189.36 195.256C189.277 195.056 189.154 194.873 189 194.72Z" fill="#001489"/>
<path d="M175.92 220.51C175.6 220.203 175.173 220.032 174.73 220.032C174.287 220.032 173.86 220.203 173.54 220.51L171.75 222.28L169.95 220.51C169.633 220.202 169.208 220.029 168.765 220.029C168.322 220.029 167.897 220.202 167.58 220.51C167.423 220.662 167.299 220.844 167.214 221.045C167.129 221.246 167.085 221.462 167.085 221.68C167.085 221.898 167.129 222.114 167.214 222.315C167.299 222.516 167.423 222.698 167.58 222.85L169.37 224.62L167.58 226.39C167.423 226.542 167.299 226.724 167.214 226.925C167.129 227.126 167.085 227.342 167.085 227.56C167.085 227.778 167.129 227.994 167.214 228.195C167.299 228.396 167.423 228.578 167.58 228.73C167.897 229.038 168.322 229.211 168.765 229.211C169.208 229.211 169.633 229.038 169.95 228.73L171.75 226.96L173.54 228.73C173.86 229.037 174.287 229.208 174.73 229.208C175.173 229.208 175.6 229.037 175.92 228.73C176.074 228.577 176.197 228.394 176.28 228.194C176.364 227.993 176.407 227.778 176.407 227.56C176.407 227.343 176.364 227.127 176.28 226.926C176.197 226.726 176.074 226.543 175.92 226.39L174.12 224.62L175.92 222.85C176.074 222.697 176.197 222.514 176.28 222.314C176.364 222.113 176.407 221.898 176.407 221.68C176.407 221.463 176.364 221.247 176.28 221.046C176.197 220.846 176.074 220.663 175.92 220.51V220.51Z" fill="#001489"/>
<path d="M175.92 233.41C175.6 233.103 175.173 232.932 174.73 232.932C174.287 232.932 173.86 233.103 173.54 233.41L171.75 235.18L169.95 233.41C169.633 233.102 169.208 232.929 168.765 232.929C168.322 232.929 167.897 233.102 167.58 233.41C167.423 233.562 167.299 233.744 167.214 233.945C167.129 234.146 167.085 234.362 167.085 234.58C167.085 234.798 167.129 235.014 167.214 235.215C167.299 235.416 167.423 235.598 167.58 235.75L169.37 237.52L167.58 239.29C167.423 239.442 167.299 239.624 167.214 239.825C167.129 240.026 167.085 240.242 167.085 240.46C167.085 240.678 167.129 240.894 167.214 241.095C167.299 241.296 167.423 241.478 167.58 241.63C167.897 241.938 168.322 242.111 168.765 242.111C169.208 242.111 169.633 241.938 169.95 241.63L171.75 239.86L173.54 241.63C173.86 241.937 174.287 242.108 174.73 242.108C175.173 242.108 175.6 241.937 175.92 241.63C176.074 241.477 176.197 241.294 176.28 241.094C176.364 240.893 176.407 240.677 176.407 240.46C176.407 240.242 176.364 240.027 176.28 239.826C176.197 239.626 176.074 239.443 175.92 239.29L174.12 237.52L175.92 235.75C176.074 235.597 176.197 235.414 176.28 235.214C176.364 235.013 176.407 234.797 176.407 234.58C176.407 234.362 176.364 234.147 176.28 233.946C176.197 233.746 176.074 233.563 175.92 233.41V233.41Z" fill="#001489"/>
<path d="M175.92 246.31C175.602 245.999 175.175 245.824 174.73 245.824C174.285 245.824 173.858 245.999 173.54 246.31L171.75 248.08L169.95 246.31C169.635 245.997 169.209 245.821 168.765 245.821C168.321 245.821 167.895 245.997 167.58 246.31C167.423 246.462 167.299 246.644 167.214 246.845C167.129 247.046 167.085 247.262 167.085 247.48C167.085 247.698 167.129 247.914 167.214 248.115C167.299 248.316 167.423 248.498 167.58 248.65L169.37 250.41L167.58 252.18L167.45 252.33L170.59 253.89L171.75 252.75L173.54 254.52C173.858 254.832 174.285 255.006 174.73 255.006C175.175 255.006 175.602 254.832 175.92 254.52C176.074 254.367 176.197 254.184 176.28 253.984C176.364 253.783 176.407 253.567 176.407 253.35C176.407 253.133 176.364 252.917 176.28 252.716C176.197 252.516 176.074 252.333 175.92 252.18L174.12 250.41L175.92 248.65C176.074 248.497 176.197 248.314 176.28 248.114C176.364 247.913 176.407 247.697 176.407 247.48C176.407 247.263 176.364 247.047 176.28 246.846C176.197 246.646 176.074 246.463 175.92 246.31V246.31Z" fill="#001489"/>
<path d="M175.92 207.62C175.602 207.309 175.175 207.134 174.73 207.134C174.285 207.134 173.858 207.309 173.54 207.62L171.75 209.39L169.95 207.62C169.635 207.307 169.209 207.131 168.765 207.131C168.321 207.131 167.895 207.307 167.58 207.62C167.423 207.772 167.299 207.954 167.214 208.155C167.129 208.356 167.085 208.572 167.085 208.79C167.085 209.008 167.129 209.224 167.214 209.425C167.299 209.626 167.423 209.808 167.58 209.96L169.37 211.72L167.58 213.49C167.423 213.642 167.299 213.824 167.214 214.025C167.129 214.226 167.085 214.442 167.085 214.66C167.085 214.878 167.129 215.094 167.214 215.295C167.299 215.496 167.423 215.678 167.58 215.83C167.895 216.143 168.321 216.319 168.765 216.319C169.209 216.319 169.635 216.143 169.95 215.83L171.75 214.06L173.54 215.83C173.858 216.141 174.285 216.316 174.73 216.316C175.175 216.316 175.602 216.141 175.92 215.83C176.074 215.677 176.197 215.494 176.28 215.294C176.364 215.093 176.407 214.877 176.407 214.66C176.407 214.443 176.364 214.227 176.28 214.026C176.197 213.826 176.074 213.643 175.92 213.49L174.12 211.72L175.92 209.96C176.074 209.807 176.197 209.624 176.28 209.424C176.364 209.223 176.407 209.008 176.407 208.79C176.407 208.573 176.364 208.357 176.28 208.156C176.197 207.956 176.074 207.773 175.92 207.62V207.62Z" fill="#001489"/>
<path d="M162.86 207.62C162.542 207.309 162.115 207.134 161.67 207.134C161.225 207.134 160.798 207.309 160.48 207.62L158.69 209.39L156.89 207.62C156.572 207.309 156.145 207.134 155.7 207.134C155.255 207.134 154.828 207.309 154.51 207.62C154.356 207.773 154.233 207.956 154.15 208.156C154.066 208.357 154.023 208.573 154.023 208.79C154.023 209.008 154.066 209.223 154.15 209.424C154.233 209.624 154.356 209.807 154.51 209.96L156.31 211.72L154.51 213.49C154.356 213.643 154.233 213.826 154.15 214.026C154.066 214.227 154.023 214.443 154.023 214.66C154.023 214.877 154.066 215.093 154.15 215.294C154.233 215.494 154.356 215.677 154.51 215.83C154.828 216.141 155.255 216.316 155.7 216.316C156.145 216.316 156.572 216.141 156.89 215.83L158.69 214.06L160.48 215.83C160.798 216.141 161.225 216.316 161.67 216.316C162.115 216.316 162.542 216.141 162.86 215.83C163.014 215.677 163.137 215.494 163.22 215.294C163.304 215.093 163.347 214.877 163.347 214.66C163.347 214.443 163.304 214.227 163.22 214.026C163.137 213.826 163.014 213.643 162.86 213.49L161.06 211.72L162.86 209.96C163.014 209.807 163.137 209.624 163.22 209.424C163.304 209.223 163.347 209.008 163.347 208.79C163.347 208.573 163.304 208.357 163.22 208.156C163.137 207.956 163.014 207.773 162.86 207.62V207.62Z" fill="#001489"/>
<path d="M162.86 181.82C162.54 181.513 162.114 181.342 161.67 181.342C161.227 181.342 160.8 181.513 160.48 181.82L158.69 183.59L156.89 181.82C156.57 181.513 156.143 181.342 155.7 181.342C155.256 181.342 154.83 181.513 154.51 181.82C154.356 181.973 154.233 182.156 154.15 182.356C154.066 182.557 154.023 182.773 154.023 182.99C154.023 183.207 154.066 183.423 154.15 183.624C154.233 183.824 154.356 184.007 154.51 184.16L156.31 185.93L154.51 187.7C154.356 187.853 154.233 188.036 154.15 188.236C154.066 188.437 154.023 188.653 154.023 188.87C154.023 189.087 154.066 189.303 154.15 189.504C154.233 189.704 154.356 189.887 154.51 190.04C154.83 190.347 155.256 190.518 155.7 190.518C156.143 190.518 156.57 190.347 156.89 190.04L158.69 188.27L160.48 190.04C160.8 190.347 161.227 190.518 161.67 190.518C162.114 190.518 162.54 190.347 162.86 190.04C163.014 189.887 163.137 189.704 163.22 189.504C163.304 189.303 163.347 189.087 163.347 188.87C163.347 188.653 163.304 188.437 163.22 188.236C163.137 188.036 163.014 187.853 162.86 187.7L161.06 185.93L162.86 184.16C163.014 184.007 163.137 183.824 163.22 183.624C163.304 183.423 163.347 183.207 163.347 182.99C163.347 182.773 163.304 182.557 163.22 182.356C163.137 182.156 163.014 181.973 162.86 181.82V181.82Z" fill="#001489"/>
<path d="M187.05 259C187.74 259.16 188.42 259.33 189.11 259.47C189.073 259.412 189.029 259.359 188.98 259.31C188.73 259.065 188.41 258.903 188.065 258.848C187.719 258.792 187.364 258.845 187.05 259Z" fill="#001489"/>
<path d="M189 220.51C188.68 220.203 188.254 220.032 187.81 220.032C187.367 220.032 186.94 220.203 186.62 220.51L184.83 222.28L183.03 220.51C182.713 220.202 182.288 220.029 181.845 220.029C181.403 220.029 180.977 220.202 180.66 220.51C180.504 220.662 180.379 220.844 180.294 221.045C180.209 221.246 180.165 221.462 180.165 221.68C180.165 221.898 180.209 222.114 180.294 222.315C180.379 222.516 180.504 222.698 180.66 222.85L182.45 224.62L180.66 226.39C180.504 226.542 180.379 226.724 180.294 226.925C180.209 227.126 180.165 227.342 180.165 227.56C180.165 227.778 180.209 227.994 180.294 228.195C180.379 228.396 180.504 228.578 180.66 228.73C180.977 229.038 181.403 229.211 181.845 229.211C182.288 229.211 182.713 229.038 183.03 228.73L184.83 226.96L186.62 228.73C186.94 229.037 187.367 229.208 187.81 229.208C188.254 229.208 188.68 229.037 189 228.73C189.154 228.577 189.277 228.394 189.36 228.194C189.444 227.993 189.487 227.778 189.487 227.56C189.487 227.343 189.444 227.127 189.36 226.926C189.277 226.726 189.154 226.543 189 226.39L187.2 224.62L189 222.85C189.154 222.697 189.277 222.514 189.36 222.314C189.444 222.113 189.487 221.898 189.487 221.68C189.487 221.463 189.444 221.247 189.36 221.046C189.277 220.846 189.154 220.663 189 220.51Z" fill="#001489"/>
<path d="M189 207.62C188.682 207.309 188.255 207.134 187.81 207.134C187.365 207.134 186.938 207.309 186.62 207.62L184.83 209.39L183.03 207.62C182.715 207.307 182.289 207.131 181.845 207.131C181.401 207.131 180.975 207.307 180.66 207.62C180.504 207.772 180.379 207.954 180.294 208.155C180.209 208.356 180.165 208.572 180.165 208.79C180.165 209.008 180.209 209.224 180.294 209.425C180.379 209.626 180.504 209.808 180.66 209.96L182.45 211.72L180.66 213.49C180.504 213.642 180.379 213.824 180.294 214.025C180.209 214.226 180.165 214.442 180.165 214.66C180.165 214.878 180.209 215.094 180.294 215.295C180.379 215.496 180.504 215.678 180.66 215.83C180.975 216.143 181.401 216.319 181.845 216.319C182.289 216.319 182.715 216.143 183.03 215.83L184.83 214.06L186.62 215.83C186.938 216.141 187.365 216.316 187.81 216.316C188.255 216.316 188.682 216.141 189 215.83C189.154 215.677 189.277 215.494 189.36 215.294C189.444 215.093 189.487 214.877 189.487 214.66C189.487 214.443 189.444 214.227 189.36 214.026C189.277 213.826 189.154 213.643 189 213.49L187.2 211.72L189 209.96C189.154 209.807 189.277 209.624 189.36 209.424C189.444 209.223 189.487 209.008 189.487 208.79C189.487 208.573 189.444 208.357 189.36 208.156C189.277 207.956 189.154 207.773 189 207.62Z" fill="#001489"/>
<path d="M162.86 220.51C162.54 220.203 162.114 220.032 161.67 220.032C161.227 220.032 160.8 220.203 160.48 220.51L158.69 222.28L156.89 220.51C156.57 220.203 156.143 220.032 155.7 220.032C155.256 220.032 154.83 220.203 154.51 220.51C154.356 220.663 154.233 220.846 154.15 221.046C154.066 221.247 154.023 221.463 154.023 221.68C154.023 221.898 154.066 222.113 154.15 222.314C154.233 222.514 154.356 222.697 154.51 222.85L156.31 224.62L154.51 226.39C154.356 226.543 154.233 226.726 154.15 226.926C154.066 227.127 154.023 227.343 154.023 227.56C154.023 227.778 154.066 227.993 154.15 228.194C154.233 228.394 154.356 228.577 154.51 228.73C154.83 229.037 155.256 229.208 155.7 229.208C156.143 229.208 156.57 229.037 156.89 228.73L158.69 226.96L160.48 228.73C160.8 229.037 161.227 229.208 161.67 229.208C162.114 229.208 162.54 229.037 162.86 228.73C163.014 228.577 163.137 228.394 163.22 228.194C163.304 227.993 163.347 227.778 163.347 227.56C163.347 227.343 163.304 227.127 163.22 226.926C163.137 226.726 163.014 226.543 162.86 226.39L161.06 224.62L162.86 222.85C163.014 222.697 163.137 222.514 163.22 222.314C163.304 222.113 163.347 221.898 163.347 221.68C163.347 221.463 163.304 221.247 163.22 221.046C163.137 220.846 163.014 220.663 162.86 220.51V220.51Z" fill="#001489"/>
<path d="M175.92 194.72C175.6 194.413 175.173 194.242 174.73 194.242C174.287 194.242 173.86 194.413 173.54 194.72L171.75 196.49L169.95 194.72C169.633 194.411 169.208 194.239 168.765 194.239C168.322 194.239 167.897 194.411 167.58 194.72C167.423 194.872 167.299 195.054 167.214 195.255C167.129 195.456 167.085 195.672 167.085 195.89C167.085 196.108 167.129 196.324 167.214 196.525C167.299 196.726 167.423 196.908 167.58 197.06L169.37 198.83L167.58 200.6C167.424 200.751 167.299 200.932 167.214 201.132C167.129 201.332 167.086 201.548 167.086 201.765C167.086 201.982 167.129 202.198 167.214 202.398C167.299 202.598 167.424 202.779 167.58 202.93C167.895 203.243 168.321 203.419 168.765 203.419C169.209 203.419 169.635 203.243 169.95 202.93L171.75 201.17L173.54 202.93C173.858 203.242 174.285 203.416 174.73 203.416C175.175 203.416 175.602 203.242 175.92 202.93C176.074 202.778 176.196 202.596 176.279 202.396C176.363 202.196 176.406 201.982 176.406 201.765C176.406 201.548 176.363 201.334 176.279 201.134C176.196 200.934 176.074 200.752 175.92 200.6L174.12 198.83L175.92 197.06C176.074 196.907 176.197 196.724 176.28 196.524C176.364 196.323 176.407 196.107 176.407 195.89C176.407 195.673 176.364 195.457 176.28 195.256C176.197 195.056 176.074 194.873 175.92 194.72V194.72Z" fill="#001489"/>
<path d="M175.92 181.82C175.6 181.513 175.173 181.342 174.73 181.342C174.287 181.342 173.86 181.513 173.54 181.82L171.75 183.59L169.95 181.82C169.633 181.512 169.208 181.339 168.765 181.339C168.322 181.339 167.897 181.512 167.58 181.82C167.423 181.972 167.299 182.154 167.214 182.355C167.129 182.556 167.085 182.772 167.085 182.99C167.085 183.208 167.129 183.424 167.214 183.625C167.299 183.826 167.423 184.008 167.58 184.16L169.37 185.93L167.58 187.7C167.423 187.852 167.299 188.034 167.214 188.235C167.129 188.436 167.085 188.652 167.085 188.87C167.085 189.088 167.129 189.304 167.214 189.505C167.299 189.706 167.423 189.888 167.58 190.04C167.897 190.349 168.322 190.521 168.765 190.521C169.208 190.521 169.633 190.349 169.95 190.04L171.75 188.27L173.54 190.04C173.86 190.347 174.287 190.518 174.73 190.518C175.173 190.518 175.6 190.347 175.92 190.04C176.074 189.887 176.197 189.704 176.28 189.504C176.364 189.303 176.407 189.087 176.407 188.87C176.407 188.653 176.364 188.437 176.28 188.236C176.197 188.036 176.074 187.853 175.92 187.7L174.12 185.93L175.92 184.16C176.074 184.007 176.197 183.824 176.28 183.624C176.364 183.423 176.407 183.207 176.407 182.99C176.407 182.773 176.364 182.557 176.28 182.356C176.197 182.156 176.074 181.973 175.92 181.82V181.82Z" fill="#001489"/>
<path d="M189 246.31C188.682 245.999 188.255 245.824 187.81 245.824C187.365 245.824 186.938 245.999 186.62 246.31L184.83 248.08L183.03 246.31C182.715 245.997 182.289 245.821 181.845 245.821C181.401 245.821 180.975 245.997 180.66 246.31C180.504 246.462 180.379 246.644 180.294 246.845C180.209 247.046 180.165 247.262 180.165 247.48C180.165 247.698 180.209 247.914 180.294 248.115C180.379 248.316 180.504 248.498 180.66 248.65L182.45 250.41L180.66 252.18C180.504 252.332 180.379 252.514 180.294 252.715C180.209 252.916 180.165 253.132 180.165 253.35C180.165 253.568 180.209 253.784 180.294 253.985C180.379 254.186 180.504 254.368 180.66 254.52C180.975 254.833 181.401 255.009 181.845 255.009C182.289 255.009 182.715 254.833 183.03 254.52L184.83 252.75L186.62 254.52C186.938 254.832 187.365 255.006 187.81 255.006C188.255 255.006 188.682 254.832 189 254.52C189.154 254.367 189.277 254.184 189.36 253.984C189.444 253.783 189.487 253.567 189.487 253.35C189.487 253.133 189.444 252.917 189.36 252.716C189.277 252.516 189.154 252.333 189 252.18L187.2 250.41L189 248.65C189.154 248.497 189.277 248.314 189.36 248.114C189.444 247.913 189.487 247.697 189.487 247.48C189.487 247.263 189.444 247.047 189.36 246.846C189.277 246.646 189.154 246.463 189 246.31Z" fill="#001489"/>
<path d="M354.93 5.38C368.376 5.39852 381.266 10.7481 390.774 20.256C400.282 29.7638 405.632 42.6539 405.65 56.1V354.39C405.634 367.837 400.285 380.729 390.777 390.237C381.269 399.745 368.377 405.094 354.93 405.11H56.6401C43.1924 405.097 30.2993 399.749 20.7903 390.24C11.2813 380.731 5.9334 367.838 5.92017 354.39V56.1C5.93605 42.6531 11.2848 29.7615 20.7932 20.2531C30.3016 10.7446 43.1932 5.39588 56.6401 5.38H354.93M354.93 0.380005H56.6401C41.8623 0.380005 27.6896 6.25049 17.2401 16.7C6.79059 27.1495 0.920166 41.3221 0.920166 56.1V354.39C0.920166 369.168 6.79059 383.341 17.2401 393.79C27.6896 404.24 41.8623 410.11 56.6401 410.11H354.93C369.708 410.11 383.881 404.24 394.33 393.79C404.78 383.341 410.65 369.168 410.65 354.39V56.1C410.65 41.3221 404.78 27.1495 394.33 16.7C383.881 6.25049 369.708 0.380005 354.93 0.380005V0.380005Z" fill="#001489"/>
</svg>
