<svg width="411" height="411" viewBox="0 0 411 411" fill="none" xmlns="http://www.w3.org/2000/svg">
<path d="M165.78 213.71H134.69V220.09H147.19V259.42H153.28V220.09H165.78V213.71Z" fill="#001489"/>
<path d="M270.38 213.71V233.38H251.45V213.71H245.37V259.42H251.45V239.76H270.38V259.42H276.46V213.71H270.38Z" fill="#001489"/>
<path d="M202.75 220.09V213.71H171.66V259.42H177.74H202.75V253.05H177.74V239.76H196.17V233.38H177.74V220.09H202.75Z" fill="#001489"/>
<path d="M239.44 220.09V213.71H208.35V259.42H239.44V253.05H214.43V220.09H239.44Z" fill="#001489"/>
<path d="M143.42 152.94V105.67H179.3V96.51H134.69V162.1H179.3V124.45H161.44V133.6H170.58V152.94H143.42Z" fill="#001489"/>
<path d="M188.05 115.24V162.1H232.66V152.94H196.78V143.25H232.66V115.25L188.05 115.24ZM223.94 134.09H196.78V124.39H223.94V134.09Z" fill="#001489"/>
<path d="M261.88 115.24L249.43 128.3V115.24H240.7V162.1H249.43V141.25L265.5 124.39H276.46V115.24H261.88Z" fill="#001489"/>
<path d="M242.52 169.67V176.67H269.82V184H242.52V205.31H276.46V169.66L242.52 169.67ZM269.82 198.35H249.16V191H269.82V198.35Z" fill="#001489"/>
<path d="M188.43 198.42V169.74V169.65H175.01V176.62H181.79V205.39H195.2V198.42H188.43Z" fill="#001489"/>
<path d="M159.33 169.65H134.69V205.3H141.33V176.62H148.34V205.3H154.98V176.62H156.58L161.99 182.29V205.3H168.63V179.41L159.33 169.65Z" fill="#001489"/>
<path d="M226.94 169.65H202.28V205.3H208.91V176.62H224.19L229.58 182.27V205.3H236.22V179.39L226.94 169.65Z" fill="#001489"/>
<path d="M96.66 314C88.44 314 83.27 308.25 83.27 299C83.27 290 88.42 284.3 96.6 284.3C102.98 284.3 107.82 288.08 108.81 293.81H104.24C103.799 292.147 102.804 290.683 101.418 289.663C100.032 288.643 98.3393 288.127 96.62 288.2C91.13 288.2 87.8199 292.2 87.8199 298.96C87.8199 305.72 91.22 310.07 96.7 310.07C101.35 310.07 104.58 307.07 104.64 302.72V302.23H97.21V298.63H109V301.55C109 309.37 104.44 314 96.66 314Z" fill="#001489"/>
<path d="M130.81 307.38C130.21 311.2 126.59 313.93 121.81 313.93C115.66 313.93 111.94 309.77 111.94 303.16C111.94 296.55 115.72 292.22 121.63 292.22C127.54 292.22 131.06 296.32 131.06 302.67V304.14H116.28V304.4C116.28 308.04 118.47 310.4 121.91 310.4C124.35 310.4 126.17 309.16 126.74 307.33L130.81 307.38ZM116.29 301.13H126.75C126.65 297.93 124.62 295.68 121.62 295.68C118.62 295.68 116.51 298 116.29 301.13Z" fill="#001489"/>
<path d="M134.37 292.6H138.46V296.16H138.56C138.814 295.032 139.451 294.027 140.363 293.316C141.274 292.605 142.404 292.232 143.56 292.26C144.054 292.267 144.546 292.321 145.03 292.42V296.42C144.404 296.238 143.752 296.157 143.1 296.18C140.34 296.18 138.62 298.03 138.62 300.99V313.53H134.33L134.37 292.6Z" fill="#001489"/>
<path d="M147.73 292.6H151.83V296.12H151.93C152.406 294.932 153.239 293.922 154.314 293.227C155.388 292.532 156.652 292.187 157.93 292.24C159.225 292.162 160.508 292.524 161.571 293.269C162.633 294.014 163.412 295.096 163.78 296.34H163.88C164.428 295.077 165.345 294.01 166.51 293.279C167.675 292.547 169.035 292.185 170.41 292.24C174.54 292.24 177.25 294.99 177.25 299.14V313.53H172.93V300.18C172.93 297.47 171.48 295.92 168.93 295.92C168.341 295.91 167.757 296.023 167.214 296.251C166.671 296.478 166.181 296.816 165.775 297.243C165.369 297.669 165.056 298.176 164.855 298.729C164.655 299.283 164.571 299.872 164.61 300.46V313.53H160.4V299.86C160.438 299.328 160.36 298.793 160.172 298.294C159.984 297.794 159.689 297.342 159.309 296.967C158.929 296.593 158.472 296.305 157.969 296.124C157.467 295.943 156.932 295.874 156.4 295.92C155.8 295.921 155.207 296.046 154.658 296.286C154.108 296.525 153.614 296.876 153.205 297.314C152.796 297.753 152.482 298.271 152.281 298.836C152.081 299.401 151.999 300.002 152.04 300.6V313.53H147.74L147.73 292.6Z" fill="#001489"/>
<path d="M181.13 287.09C181.118 286.593 181.255 286.103 181.523 285.684C181.79 285.265 182.177 284.935 182.633 284.737C183.09 284.539 183.595 284.481 184.084 284.572C184.573 284.662 185.024 284.896 185.379 285.244C185.734 285.593 185.978 286.039 186.078 286.526C186.178 287.013 186.131 287.519 185.942 287.979C185.753 288.439 185.431 288.833 185.018 289.109C184.604 289.385 184.118 289.532 183.62 289.53C182.967 289.535 182.338 289.282 181.871 288.824C181.405 288.367 181.138 287.743 181.13 287.09V287.09ZM181.47 292.6H185.76V313.53H181.47V292.6Z" fill="#001489"/>
<path d="M190.16 292.6H194.26V296.1H194.36C194.944 294.872 195.883 293.847 197.057 293.159C198.23 292.47 199.583 292.15 200.94 292.24C205.56 292.24 208.21 295.18 208.21 299.98V313.53H203.89V300.81C203.89 297.67 202.41 295.94 199.43 295.94C196.45 295.94 194.43 298.09 194.43 301.33V313.53H190.13L190.16 292.6Z" fill="#001489"/>
<path d="M211.5 307.58C211.5 303.92 214.31 301.67 219.28 301.39L225.01 301.05V299.44C225.01 297.11 223.44 295.72 220.81 295.72C218.33 295.72 216.81 296.92 216.4 298.79H212.34C212.58 295 215.8 292.22 220.97 292.22C226.14 292.22 229.29 294.91 229.29 299.1V313.53H225.17V310.09H225.07C224.411 311.259 223.449 312.228 222.286 312.897C221.123 313.566 219.801 313.909 218.46 313.89C214.37 313.89 211.5 311.34 211.5 307.58ZM225.01 305.69V304L219.86 304.32C217.29 304.5 215.86 305.63 215.86 307.42C215.86 309.21 217.37 310.42 219.68 310.42C222.66 310.49 225 308.42 225 305.69H225.01Z" fill="#001489"/>
<path d="M236.27 313.53V288.66H227.47V284.82H249.47V288.66H240.69V313.53H236.27Z" fill="#001489"/>
<path d="M271.34 313.53H253.11V284.82H271.34V288.66H257.57V297.05H270.57V300.75H257.57V309.67H271.34V313.53Z" fill="#001489"/>
<path d="M274.87 299.16C274.87 290.07 280.01 284.34 288.02 284.34C294.53 284.34 299.45 288.34 300.2 294.34H295.78C295.415 292.572 294.435 290.99 293.015 289.875C291.594 288.76 289.825 288.184 288.02 288.25C282.81 288.25 279.43 292.53 279.43 299.17C279.43 305.81 282.77 310.12 288.04 310.12C292.04 310.12 294.89 308.12 295.78 304.61H300.22C299.13 310.53 294.63 314.02 288.02 314.02C280 314 274.87 308.32 274.87 299.16Z" fill="#001489"/>
<path d="M323.43 313.53V300.81H308.69V313.53H304.23V284.82H308.69V297H323.43V284.86H327.89V313.57L323.43 313.53Z" fill="#001489"/>
<path d="M354.72 5.38C368.167 5.39588 381.058 10.7446 390.567 20.2531C400.075 29.7615 405.424 42.6531 405.44 56.1V354.39C405.427 367.838 400.079 380.731 390.57 390.24C381.061 399.749 368.168 405.097 354.72 405.11H56.4301C42.9831 405.094 30.0915 399.745 20.5831 390.237C11.0747 380.729 5.72584 367.837 5.70996 354.39V56.1C5.72848 42.6539 11.0781 29.7638 20.5859 20.256C30.0938 10.7481 42.984 5.39852 56.4301 5.38H354.72ZM354.72 0.380005H56.4301C41.6522 0.380005 27.4796 6.25049 17.03 16.7C6.5805 27.1495 0.709961 41.3221 0.709961 56.1V354.39C0.709961 369.168 6.5805 383.341 17.03 393.79C27.4796 404.24 41.6522 410.11 56.4301 410.11H354.72C369.498 410.11 383.67 404.24 394.12 393.79C404.57 383.341 410.44 369.168 410.44 354.39V56.1C410.44 41.3221 404.57 27.1495 394.12 16.7C383.67 6.25049 369.498 0.380005 354.72 0.380005V0.380005Z" fill="#001489"/>
</svg>
