<svg width="211" height="202" viewBox="0 0 211 202" fill="none" xmlns="http://www.w3.org/2000/svg">
<path d="M11.9402 201.43C4.94019 201.43 0.470215 196.51 0.470215 188.62C0.470215 180.73 4.88026 176.02 11.8903 176.02C17.3603 176.02 21.5002 179.26 22.3502 184.17H18.4303C18.0552 182.745 17.204 181.491 16.0181 180.616C14.8321 179.741 13.3827 179.298 11.9103 179.36C7.20028 179.36 4.37024 182.8 4.37024 188.58C4.37024 194.36 7.29022 198.09 11.9702 198.09C15.9702 198.09 18.7203 195.54 18.7703 191.8V191.38H12.4203V188.29H22.5403V190.8C22.5403 197.46 18.6002 201.43 11.9402 201.43Z" fill="#001489"/>
<path d="M41.2002 195.76C40.6902 199.03 37.5902 201.36 33.4802 201.36C28.2102 201.36 25.0303 197.8 25.0303 192.14C25.0303 186.48 28.2602 182.77 33.3302 182.77C38.4002 182.77 41.4103 186.28 41.4103 191.77V193H28.7402V193.22C28.7402 196.34 30.6202 198.4 33.5702 198.4C34.4512 198.472 35.3317 198.255 36.0786 197.783C36.8255 197.31 37.3982 196.607 37.7102 195.78L41.2002 195.76ZM28.7603 190.41H37.7603C37.6803 187.66 35.9402 185.74 33.3702 185.74C30.8002 185.74 29.0003 187.7 28.7603 190.41Z" fill="#001489"/>
<path d="M44.25 183.09H47.76V186.14H47.84C48.067 185.172 48.6204 184.311 49.4071 183.703C50.1938 183.095 51.1659 182.776 52.16 182.8C52.5835 182.807 53.0054 182.854 53.42 182.94V186.37C52.8815 186.212 52.321 186.141 51.76 186.16C49.4 186.16 47.9301 187.75 47.9301 190.29V201H44.25V183.09Z" fill="#001489"/>
<path d="M55.7001 183.09H59.2101V186.09H59.3002C59.7057 185.081 60.4115 184.222 61.322 183.628C62.2325 183.034 63.3036 182.735 64.3901 182.77C65.4968 182.708 66.5921 183.02 67.4993 183.657C68.4065 184.294 69.0726 185.218 69.3901 186.28H69.4701C69.9403 185.2 70.7254 184.288 71.7228 183.661C72.7201 183.035 73.8834 182.724 75.0602 182.77C75.8464 182.723 76.6336 182.843 77.3694 183.124C78.1052 183.405 78.7726 183.84 79.3271 184.399C79.8817 184.959 80.3106 185.63 80.5853 186.368C80.86 187.106 80.9742 187.894 80.9202 188.68V201H77.2301V189.57C77.2301 187.25 75.9802 185.92 73.8002 185.92C73.2954 185.911 72.794 186.006 72.3281 186.201C71.8622 186.395 71.442 186.685 71.094 187.051C70.746 187.417 70.478 187.851 70.3069 188.326C70.1358 188.801 70.0653 189.306 70.1001 189.81V201H66.4901V189.3C66.523 188.847 66.4578 188.392 66.299 187.966C66.1401 187.541 65.8913 187.154 65.5696 186.833C65.2478 186.512 64.8606 186.265 64.4344 186.107C64.0083 185.95 63.5532 185.886 63.1001 185.92C62.5867 185.92 62.0789 186.026 61.608 186.23C61.1371 186.435 60.7132 186.734 60.3625 187.109C60.0119 187.484 59.7421 187.927 59.5697 188.41C59.3973 188.894 59.3259 189.408 59.3601 189.92V201H55.6802L55.7001 183.09Z" fill="#001489"/>
<path d="M84.3202 178.37C84.3123 177.945 84.4313 177.527 84.662 177.169C84.8927 176.812 85.2246 176.532 85.6155 176.364C86.0063 176.196 86.4383 176.148 86.8563 176.227C87.2743 176.306 87.6594 176.508 87.9623 176.806C88.2652 177.105 88.4723 177.487 88.557 177.904C88.6417 178.321 88.6003 178.753 88.438 179.146C88.2757 179.54 88.0001 179.876 87.646 180.111C87.2919 180.347 86.8756 180.472 86.4502 180.47C86.1723 180.473 85.8966 180.42 85.6389 180.316C85.3813 180.212 85.1468 180.058 84.9489 179.863C84.7509 179.668 84.5935 179.435 84.4856 179.179C84.3777 178.923 84.3215 178.648 84.3202 178.37ZM84.6002 183.09H88.2903V201H84.6002V183.09Z" fill="#001489"/>
<path d="M92.0503 183.09H95.5603V186.09H95.6503C96.1532 185.04 96.9592 184.164 97.9645 183.576C98.9697 182.987 100.128 182.714 101.29 182.79C105.29 182.79 107.51 185.31 107.51 189.42V201H103.81V190.11C103.81 187.42 102.55 185.94 100 185.94C97.4502 185.94 95.7302 187.78 95.7302 190.56V201H92.0503V183.09Z" fill="#001489"/>
<path d="M110.34 195.93C110.34 192.79 112.74 190.87 117 190.63L121.91 190.34V189C121.91 187 120.57 185.81 118.32 185.81C116.07 185.81 114.86 186.81 114.53 188.43H111.05C111.26 185.2 114.05 182.81 118.45 182.81C122.85 182.81 125.58 185.11 125.58 188.71V201H122.05V198.06H122C121.435 199.06 120.612 199.889 119.616 200.461C118.62 201.033 117.489 201.326 116.34 201.31C112.79 201.33 110.34 199.15 110.34 195.93ZM121.91 194.31V192.89L117.5 193.17C115.3 193.32 114.05 194.29 114.05 195.83C114.05 197.37 115.35 198.42 117.33 198.42C117.902 198.458 118.476 198.381 119.018 198.194C119.56 198.006 120.059 197.713 120.486 197.33C120.913 196.947 121.259 196.482 121.503 195.964C121.748 195.445 121.886 194.883 121.91 194.31Z" fill="#001489"/>
<path d="M131.56 201V179.7H124V176.41H142.87V179.7H135.35V201H131.56Z" fill="#001489"/>
<path d="M161.6 201H146V176.41H161.61V179.7H149.82V186.89H161V190.06H149.84V197.7H161.63L161.6 201Z" fill="#001489"/>
<path d="M164.64 188.72C164.64 180.93 169.03 176.02 175.9 176.02C181.47 176.02 185.68 179.45 186.33 184.58H182.55C182.239 183.064 181.4 181.707 180.182 180.751C178.964 179.795 177.447 179.302 175.9 179.36C171.43 179.36 168.54 183.03 168.54 188.72C168.54 194.41 171.4 198.09 175.92 198.09C179.34 198.09 181.78 196.34 182.55 193.37H186.35C185.41 198.45 181.56 201.43 175.9 201.43C169 201.43 164.64 196.56 164.64 188.72Z" fill="#001489"/>
<path d="M206.24 201V190.11H193.61V201H189.79V176.41H193.61V186.81H206.24V176.41H210.05V201H206.24Z" fill="#001489"/>
<path d="M105.26 57.7501C101.242 57.7243 97.3056 58.8926 93.9516 61.1069C90.5977 63.3211 87.9768 66.4814 86.4215 70.1872C84.8661 73.8929 84.4462 77.9771 85.2152 81.9218C85.9841 85.8665 87.9073 89.4939 90.7407 92.3442C93.5741 95.1944 97.1899 97.139 101.13 97.9313C105.07 98.7237 109.157 98.3282 112.872 96.7948C116.587 95.2615 119.762 92.6594 121.996 89.3187C124.231 85.9779 125.422 82.049 125.42 78.0301C125.428 75.3747 124.913 72.7439 123.904 70.2876C122.895 67.8314 121.412 65.5979 119.54 63.7148C117.668 61.8316 115.444 60.3356 112.994 59.3122C110.544 58.2888 107.916 57.7579 105.26 57.7501Z" fill="#001489"/>
<path d="M130.16 30.53C121.86 30.35 113.56 30.26 105.26 30.26C96.9602 30.26 88.6602 30.35 80.3602 30.53C74.4419 30.7714 68.8312 33.2313 64.6438 37.4205C60.4564 41.6098 57.999 47.2216 57.7602 53.14C57.4002 69.7267 57.4002 86.3234 57.7602 102.93C57.999 108.848 60.4564 114.46 64.6438 118.649C68.8312 122.839 74.4419 125.299 80.3602 125.54C88.6602 125.713 96.9602 125.8 105.26 125.8C113.56 125.8 121.86 125.713 130.16 125.54C136.08 125.301 141.694 122.842 145.883 118.653C150.073 114.463 152.531 108.85 152.77 102.93C153.124 86.3301 153.124 69.7333 152.77 53.14C152.531 47.2199 150.073 41.6068 145.883 37.4172C141.694 33.2277 136.08 30.7689 130.16 30.53ZM105.26 107.04C99.5199 107.062 93.9024 105.379 89.1189 102.206C84.3354 99.0329 80.6012 94.5113 78.3894 89.2142C76.1776 83.9171 75.5876 78.0827 76.6941 72.4501C77.8006 66.8174 80.5539 61.6399 84.6052 57.5731C88.6565 53.5064 93.8237 50.7335 99.4521 49.6056C105.081 48.4777 110.917 49.0455 116.222 51.2372C121.528 53.4289 126.064 57.1457 129.255 61.9171C132.447 66.6885 134.15 72.2997 134.15 78.04C134.14 85.7054 131.095 93.0547 125.681 98.4814C120.267 103.908 112.926 106.971 105.26 107V107.04ZM135.71 53.95C134.45 53.9519 133.217 53.5801 132.168 52.8813C131.12 52.1826 130.302 51.1884 129.818 50.0247C129.334 48.8609 129.207 47.5797 129.451 46.3434C129.696 45.1071 130.302 43.9711 131.192 43.0792C132.083 42.1874 133.218 41.5797 134.454 41.3331C135.69 41.0865 136.971 41.2121 138.136 41.694C139.3 42.1758 140.296 42.9923 140.996 44.04C141.696 45.0878 142.07 46.3197 142.07 47.58C142.077 48.4198 141.917 49.2528 141.601 50.0308C141.284 50.8087 140.817 51.5164 140.226 52.113C139.635 52.7097 138.931 53.1836 138.156 53.5074C137.382 53.8313 136.55 53.9987 135.71 54V53.95Z" fill="#001489"/>
<path d="M149 0H61.5702C52.484 0.0263827 43.7776 3.6476 37.3527 10.0725C30.9277 16.4974 27.3067 25.2039 27.2803 34.29V121.72C27.3093 130.804 30.9316 139.508 37.3562 145.931C43.7808 152.354 52.4858 155.974 61.5702 156H149C158.083 155.971 166.785 152.35 173.208 145.928C179.63 139.505 183.251 130.803 183.28 121.72V34.29C183.254 25.2056 179.634 16.5006 173.211 10.0759C166.789 3.6513 158.085 0.0290194 149 0ZM161.51 103.09C161.215 111.25 157.842 118.997 152.069 124.771C146.296 130.546 138.55 133.922 130.39 134.22C122.07 134.39 113.63 134.48 105.31 134.48C96.9903 134.48 88.5502 134.39 80.2302 134.22C72.0699 133.922 64.3249 130.546 58.5518 124.771C52.7786 118.997 49.4055 111.25 49.1102 103.09C48.7502 86.44 48.7502 69.56 49.1102 52.92C49.4008 44.7581 52.7726 37.0092 58.5466 31.2333C64.3207 25.4573 72.0684 22.0832 80.2302 21.79C88.5502 21.61 96.9903 21.52 105.31 21.52C113.63 21.52 122.07 21.61 130.39 21.79C138.552 22.0832 146.3 25.4573 152.074 31.2333C157.848 37.0092 161.22 44.7581 161.51 52.92C161.85 69.59 161.85 86.47 161.49 103.12L161.51 103.09Z" fill="#001489"/>
</svg>
