<svg width="157" height="156" viewBox="0 0 157 156" fill="none" xmlns="http://www.w3.org/2000/svg">
<path d="M78.5304 57.7501C74.5116 57.7243 70.5755 58.8926 67.2216 61.1069C63.8676 63.3211 61.2468 66.4814 59.6914 70.1872C58.136 73.8929 57.7163 77.9771 58.4852 81.9218C59.2542 85.8665 61.1773 89.4939 64.0106 92.3442C66.844 95.1944 70.46 97.139 74.4 97.9313C78.3401 98.7237 82.4267 98.3282 86.1416 96.7948C89.8565 95.2615 93.0324 92.6594 95.2665 89.3187C97.5006 85.9779 98.6922 82.049 98.6903 78.0301C98.6982 75.3747 98.1831 72.7439 97.1742 70.2876C96.1653 67.8314 94.6826 65.5979 92.8106 63.7148C90.9385 61.8316 88.7139 60.3356 86.2637 59.3122C83.8135 58.2888 81.1857 57.7579 78.5304 57.7501V57.7501Z" fill="#001489"/>
<path d="M103.43 30.53C95.1303 30.35 86.8303 30.26 78.5303 30.26C70.2303 30.26 61.9302 30.35 53.6302 30.53C47.7119 30.7714 42.1012 33.2313 37.9138 37.4205C33.7264 41.6098 31.269 47.2216 31.0303 53.14C30.6703 69.7267 30.6703 86.3234 31.0303 102.93C31.269 108.848 33.7264 114.46 37.9138 118.649C42.1012 122.839 47.7119 125.299 53.6302 125.54C61.9302 125.713 70.2303 125.8 78.5303 125.8C86.8303 125.8 95.1303 125.713 103.43 125.54C109.35 125.301 114.963 122.842 119.153 118.653C123.342 114.463 125.801 108.85 126.04 102.93C126.394 86.3301 126.394 69.7333 126.04 53.14C125.801 47.22 123.342 41.6068 119.153 37.4172C114.963 33.2277 109.35 30.7689 103.43 30.53V30.53ZM78.5303 107.04C72.79 107.062 67.1722 105.379 62.3888 102.206C57.6053 99.0329 53.8712 94.5113 51.6594 89.2142C49.4476 83.9171 48.8576 78.0827 49.9641 72.4501C51.0706 66.8174 53.8239 61.6399 57.8752 57.5731C61.9265 53.5064 67.0936 50.7335 72.722 49.6056C78.3505 48.4777 84.1871 49.0455 89.4925 51.2372C94.798 53.4289 99.3337 57.1457 102.525 61.9171C105.717 66.6885 107.42 72.2997 107.42 78.04C107.41 85.7054 104.365 93.0547 98.9511 98.4814C93.5375 103.908 86.1955 106.971 78.5303 107V107.04ZM109 54C107.74 54.002 106.507 53.63 105.458 52.9313C104.41 52.2325 103.592 51.2384 103.108 50.0746C102.624 48.9108 102.497 47.6297 102.741 46.3934C102.986 45.1571 103.592 44.0211 104.482 43.1293C105.373 42.2374 106.508 41.6298 107.744 41.3832C108.98 41.1366 110.261 41.2621 111.426 41.7439C112.59 42.2257 113.586 43.0422 114.286 44.09C114.986 45.1377 115.36 46.3697 115.36 47.63C115.36 49.3177 114.69 50.9364 113.498 52.1307C112.306 53.3251 110.688 53.9974 109 54Z" fill="#001489"/>
<path d="M122.25 0H34.8202C25.734 0.0263827 17.0276 3.6476 10.6027 10.0725C4.17775 16.4974 0.556656 25.2039 0.530273 34.29V121.72C0.559293 130.804 4.18157 139.508 10.6062 145.931C17.0308 152.354 25.7358 155.974 34.8202 156H122.25C131.333 155.971 140.035 152.35 146.458 145.928C152.88 139.505 156.501 130.803 156.53 121.72V34.29C156.504 25.2056 152.884 16.5006 146.461 10.0759C140.039 3.6513 131.335 0.0290194 122.25 0V0ZM134.76 103.09C134.465 111.25 131.092 118.997 125.319 124.771C119.546 130.546 111.801 133.922 103.64 134.22V134.22C95.3103 134.39 86.8703 134.48 78.5503 134.48C70.2303 134.48 61.7902 134.39 53.4702 134.22C45.3082 133.925 37.5606 130.55 31.7854 124.775C26.0102 119 22.6356 111.252 22.3402 103.09V103.09C21.9902 86.44 21.9902 69.56 22.3402 52.92C22.6309 44.7565 26.0041 37.0062 31.7803 31.23C37.5565 25.4538 45.3066 22.0808 53.4702 21.79V21.79C61.7902 21.61 70.2303 21.52 78.5503 21.52C86.8703 21.52 95.3103 21.61 103.64 21.79C111.802 22.0832 119.55 25.4573 125.324 31.2333C131.098 37.0092 134.47 44.7581 134.76 52.92V52.92C135.12 69.59 135.12 86.47 134.76 103.12V103.09Z" fill="#001489"/>
</svg>
