<svg width="157" height="157" viewBox="0 0 157 157" fill="none" xmlns="http://www.w3.org/2000/svg">
<path d="M122.61 0.319946H35.1802C26.0957 0.346316 17.3907 3.96616 10.9661 10.3889C4.54144 16.8117 0.919156 25.5156 0.890137 34.6V122C0.916519 131.086 4.53761 139.793 10.9625 146.218C17.3874 152.642 26.094 156.264 35.1802 156.29H122.61C131.695 156.261 140.398 152.639 146.821 146.214C153.244 139.789 156.864 131.084 156.89 122V34.6C156.861 25.5173 153.24 16.8149 146.818 10.3925C140.395 3.96999 131.693 0.348952 122.61 0.319946V0.319946ZM49.8601 60.4V129.73H29.4801V60.08H49.8601V60.4ZM50.3301 39.75C49.9936 41.7068 49.1258 43.5334 47.8213 45.0303C46.5168 46.5271 44.8258 47.6366 42.9333 48.2373C41.0409 48.838 39.0197 48.9069 37.0907 48.4364C35.1617 47.9659 33.3991 46.9742 31.9957 45.5697C30.5923 44.1652 29.602 42.4019 29.1331 40.4725C28.6641 38.5432 28.7347 36.522 29.3369 34.63C29.9391 32.738 31.05 31.048 32.5479 29.7446C34.0457 28.4413 35.873 27.5749 37.8301 27.24C39.5374 26.9501 41.2893 27.0735 42.9391 27.5999C44.5889 28.1262 46.0886 29.0401 47.3126 30.2651C48.5366 31.4901 49.4494 32.9905 49.9744 34.6407C50.4994 36.291 50.6213 38.0429 50.3301 39.75V39.75ZM130.08 129.42V129.73H109.7V91C109.7 80.38 105.34 74.53 97.4401 74.53C91.9401 74.53 87.4402 77.89 85.2802 83.53C84.6643 85.4134 84.38 87.3894 84.4401 89.37V129.7H63.4401V60.05H63.7601H84.0502H84.3701V68.84L86.0201 66.96C88.4407 64.229 91.4254 62.0564 94.7681 60.5923C98.1107 59.1281 101.732 58.4074 105.38 58.48C112.64 58.48 118.72 60.96 122.96 65.67C127.66 70.87 130.04 78.5 130.04 88.33L130.08 129.42Z" fill="#001489"/>
</svg>
