<svg width="157" height="157" viewBox="0 0 157 157" fill="none" xmlns="http://www.w3.org/2000/svg">
<path d="M122 0.319946H34.58C25.4955 0.346316 16.7906 3.96616 10.366 10.3889C3.94134 16.8117 0.319058 25.5156 0.290039 34.6V122C0.316422 131.086 3.93751 139.793 10.3624 146.218C16.7873 152.642 25.4938 156.264 34.58 156.29H122C131.086 156.264 139.793 152.642 146.218 146.218C152.642 139.793 156.264 131.086 156.29 122V34.6C156.261 25.5156 152.639 16.8117 146.214 10.3889C139.789 3.96616 131.084 0.346316 122 0.319946ZM125.87 70.64C116.555 70.6607 107.514 67.4838 100.26 61.64V101.72C100.275 108.062 98.4052 114.265 94.8882 119.542C91.3711 124.819 86.3654 128.932 80.5063 131.359C74.6473 133.786 68.1993 134.418 61.9808 133.173C55.7624 131.929 50.0538 128.865 45.58 124.37C44.6623 123.453 43.8008 122.481 43 121.46C41.9764 120.662 41.0044 119.801 40.09 118.88C37.1132 115.908 34.7516 112.378 33.1404 108.492C31.5291 104.607 30.6998 100.441 30.6998 96.235C30.6998 92.0285 31.5291 87.8633 33.1404 83.9777C34.7516 80.092 37.1132 76.5621 40.09 73.59C43.0601 70.6091 46.5903 68.2449 50.4774 66.6334C54.3646 65.0219 58.532 64.1949 62.74 64.2H68.86V69.6899H74.35V84.9H68.23C65.2129 84.312 62.0868 84.7083 59.3119 86.0306C56.537 87.3529 54.26 89.5313 52.8163 92.245C51.3725 94.9587 50.8384 98.0643 51.2924 101.104C51.7463 104.144 53.1645 106.958 55.338 109.132C57.5115 111.305 60.3256 112.724 63.3657 113.178C66.4058 113.632 69.5113 113.097 72.225 111.654C74.9387 110.21 77.117 107.933 78.4393 105.158C79.7616 102.383 80.1579 99.2571 79.5699 96.24V24.5699C79.565 24.5167 79.565 24.4633 79.5699 24.41H94.78C94.7775 26.256 94.9753 28.0968 95.37 29.9H100.27C99.8546 32.6337 100.088 35.4268 100.95 38.0538C101.813 40.6809 103.281 43.0683 105.236 45.0236C107.192 46.9788 109.579 48.447 112.206 49.3097C114.833 50.1724 117.626 50.4054 120.36 49.99V54.88C122.163 55.2781 124.004 55.4792 125.85 55.48L125.87 70.64Z" fill="#001489"/>
</svg>
