<svg width="411" height="410" viewBox="0 0 411 410" fill="none" xmlns="http://www.w3.org/2000/svg">
<path d="M199.31 111.31C199.31 111.31 204.98 166.9 211.31 183.66C211.31 183.66 187.18 155.32 199.31 111.31" fill="#001489"/>
<path d="M199.31 111.31C199.31 111.31 204.98 166.9 211.31 183.66C211.29 183.66 187.16 155.32 199.31 111.31Z" fill="#001489"/>
<path d="M133.24 97.14H141.82C141.82 97.14 155.82 110.46 147.33 122.97C147.33 122.97 157.13 145.32 146.11 149.97C146.11 149.97 146.92 157.58 157.21 173.77C157.21 173.77 145.14 163.57 140.44 148.59C140.44 148.59 147 148.59 147.38 140.17C147.66 134.09 142.87 125.96 140.57 123.77C140.57 123.77 153.32 112.84 133.24 97.09" fill="#001489"/>
<path d="M267.74 97.14H259.15C259.15 97.14 245.1 110.46 253.65 122.97C253.65 122.97 243.85 145.32 254.86 149.97C254.86 149.97 254.05 157.58 243.77 173.77C243.77 173.77 255.83 163.57 260.53 148.59C260.53 148.59 253.97 148.59 253.59 140.17C253.32 134.09 258.1 125.96 260.41 123.77C260.41 123.77 247.65 112.84 267.74 97.09" fill="#001489"/>
<path d="M247.62 96L243.4 88.79C243.4 88.79 232.96 93.79 215.91 92.79C217.117 96.3061 217.096 100.128 215.85 103.63C217.27 103.63 229.32 103.44 234.85 99.9L236.71 103.64C236.71 103.64 230.56 111.81 237.52 118.28C237.52 118.28 228.29 137.8 237.36 150.11C237.36 150.11 229.99 189.06 200.52 191.65C171.04 189.06 163.67 150.11 163.67 150.11C172.74 137.8 163.51 118.28 163.51 118.28C170.51 111.81 164.32 103.64 164.32 103.64L166.18 99.9C171.68 103.44 183.73 103.62 185.18 103.63C183.921 100.13 183.9 96.3038 185.12 92.79C168.12 93.79 157.62 88.79 157.62 88.79L153.41 96C166.16 112.94 153.41 118.51 153.41 118.51C165.23 142.4 153.9 152.11 153.9 152.11C165.23 199.89 200.54 201.99 200.54 201.99C200.54 201.99 235.84 199.89 247.18 152.11C247.18 152.11 235.84 142.4 247.67 118.51C247.67 118.51 234.91 112.94 247.67 96" fill="#001489"/>
<path d="M210 98.11C210 99.9972 209.44 101.842 208.392 103.411C207.343 104.98 205.853 106.203 204.109 106.925C202.365 107.647 200.446 107.835 198.595 107.466C196.745 107.097 195.045 106.187 193.711 104.852C192.377 103.517 191.469 101.816 191.102 99.965C190.735 98.1138 190.926 96.1953 191.649 94.4523C192.373 92.7092 193.597 91.22 195.167 90.1729C196.737 89.1259 198.583 88.568 200.47 88.57C202.999 88.5727 205.423 89.5789 207.21 91.3677C208.996 93.1566 210 95.5816 210 98.11Z" fill="#001489"/>
<path d="M208.05 111.31C208.05 111.31 224.86 152.57 193.2 182.93C193.2 182.93 205.57 161.77 208.05 111.31" fill="#001489"/>
<path d="M193 107.59C193 107.59 180.94 128.17 199.28 152.95C199.28 152.95 189.39 130.52 193 107.59Z" fill="#001489"/>
<path d="M115.07 250.2C112.107 251.286 108.976 251.845 105.82 251.85C101.28 251.85 97.5403 250.69 94.6003 247.85C92.0203 245.36 90.4204 241.36 90.4204 236.68C90.4204 227.74 96.6004 221.19 106.66 221.19C109.236 221.129 111.797 221.602 114.18 222.58L113.18 225.73C111.094 224.8 108.823 224.359 106.54 224.44C99.2404 224.44 94.4803 228.98 94.4803 236.51C94.4803 244.04 99.0204 248.61 106.05 248.61C107.811 248.709 109.572 248.436 111.22 247.81V238.81H105.16V235.7H115.04L115.07 250.2Z" fill="#001489"/>
<path d="M136.44 237.47H124.82V248.29H137.82V251.54H120.91V221.54H137.15V224.79H124.82V234.27H136.44V237.47Z" fill="#001489"/>
<path d="M142.85 221.94C145.305 221.526 147.791 221.319 150.28 221.32C154.42 221.32 157.13 222.12 158.96 223.76C159.732 224.499 160.341 225.392 160.748 226.38C161.154 227.369 161.349 228.432 161.32 229.5C161.336 231.206 160.798 232.872 159.786 234.246C158.775 235.62 157.344 236.629 155.71 237.12V237.25C157.98 238.05 159.36 240.18 160.07 243.25C161.07 247.44 161.76 250.33 162.39 251.49H158.39C157.489 249.172 156.819 246.77 156.39 244.32C155.5 240.18 153.86 238.62 150.34 238.49H146.69V251.49H142.82L142.85 221.94ZM146.72 235.6H150.72C154.86 235.6 157.49 233.33 157.49 229.9C157.49 226.03 154.68 224.34 150.59 224.34C149.306 224.298 148.021 224.402 146.76 224.65L146.72 235.6Z" fill="#001489"/>
<path d="M192.07 238.36C191.85 234.18 191.58 229.1 191.58 225.36H191.5C190.43 228.83 189.23 232.61 187.71 236.75L182.421 251.31H179.48L174.58 237.02C173.16 232.75 172.001 228.92 171.161 225.36H171.07C170.98 229.1 170.76 234.08 170.49 238.62L169.69 251.49H166L168.09 221.49H173.09L178.2 236C179.45 239.69 180.43 243 181.2 246.1H181.291C182.091 243.1 183.16 239.78 184.49 236L189.83 221.49H194.83L196.69 251.49H192.87L192.07 238.36Z" fill="#001489"/>
<path d="M206.45 221.54V251.54H202.53V221.54H206.45Z" fill="#001489"/>
<path d="M213.22 251.54V221.54H217.49L227.06 236.71C229.052 239.84 230.836 243.097 232.4 246.46H232.53C232.18 242.46 232.09 238.8 232.09 234.13V221.54H235.74V251.54H231.82L222.29 236.31C220.219 233.102 218.362 229.762 216.73 226.31H216.6C216.82 230.1 216.87 233.7 216.87 238.69V251.51L213.22 251.54Z" fill="#001489"/>
<path d="M247.35 242.1L244.24 251.54H240.24L250.48 221.54H255.11L265.34 251.54H261.21L258 242.1H247.35ZM257.24 239.1L254.24 230.47C253.58 228.47 253.13 226.73 252.69 224.99H252.6C252.15 226.73 251.71 228.6 251.08 230.42L248.15 239.1H257.24Z" fill="#001489"/>
<path d="M269.74 221.94C272.195 221.527 274.681 221.319 277.17 221.32C281.31 221.32 284.03 222.12 285.85 223.76C286.622 224.499 287.231 225.392 287.638 226.38C288.044 227.369 288.239 228.432 288.21 229.5C288.226 231.206 287.688 232.872 286.676 234.246C285.665 235.62 284.234 236.629 282.6 237.12V237.25C284.88 238.05 286.25 240.18 286.97 243.25C287.97 247.44 288.66 250.33 289.28 251.49H285.28C284.386 249.17 283.716 246.769 283.28 244.32C282.39 240.18 280.74 238.62 277.22 238.49H273.57V251.49H269.7L269.74 221.94ZM273.61 235.6H277.61C281.74 235.6 284.37 233.33 284.37 229.9C284.37 226.03 281.57 224.34 277.47 224.34C276.186 224.298 274.901 224.402 273.64 224.65L273.61 235.6Z" fill="#001489"/>
<path d="M309.18 237.47H297.56V248.29H310.56V251.54H293.64V221.54H309.89V224.79H297.56V234.27H309.18V237.47Z" fill="#001489"/>
<path d="M54.5203 302.86H36.3003V274.15H54.5203V278H40.7502V286.39H53.7502V290.1H40.7502V299H54.5203V302.86Z" fill="#001489"/>
<path d="M66.4004 281.55C71.0504 281.55 74.3104 284.16 74.4004 287.88H70.4004C70.2104 285.99 68.6704 284.81 66.2704 284.81C63.8704 284.81 62.3904 285.95 62.3904 287.6C62.3904 288.89 63.3903 289.77 65.5903 290.3L69.1104 291.12C73.3304 292.12 74.9204 293.73 74.9204 296.81C74.9204 300.63 71.3603 303.26 66.2303 303.26C61.2303 303.26 57.9904 300.69 57.6504 296.85H61.9104C62.2504 298.85 63.8004 299.98 66.4204 299.98C69.0404 299.98 70.6003 298.9 70.6003 297.21C70.6003 295.88 69.8103 295.14 67.6003 294.58L63.8604 293.67C60.0804 292.75 58.1704 290.78 58.1704 287.86C58.2004 284.12 61.5004 281.55 66.4004 281.55Z" fill="#001489"/>
<path d="M92.1404 289.13C91.957 287.974 91.3535 286.927 90.4456 286.189C89.5376 285.451 88.3891 285.074 87.2203 285.13C83.9003 285.13 81.7103 287.9 81.7103 292.39C81.7103 296.88 83.9204 299.66 87.2604 299.66C88.4119 299.742 89.5521 299.388 90.4557 298.67C91.3593 297.952 91.9605 296.92 92.1404 295.78H96.2704C95.8204 300.23 92.2704 303.26 87.2704 303.26C81.2704 303.26 77.3804 299.16 77.3804 292.39C77.3804 285.62 81.2803 281.55 87.2303 281.55C92.6203 281.55 95.9103 285.01 96.2303 289.13H92.1404Z" fill="#001489"/>
<path d="M98.3804 292.39C98.3804 285.67 102.33 281.55 108.3 281.55C114.27 281.55 118.23 285.67 118.23 292.39C118.23 299.11 114.29 303.26 108.3 303.26C102.31 303.26 98.3804 299.14 98.3804 292.39ZM113.86 292.39C113.86 287.76 111.67 285.09 108.3 285.09C104.93 285.09 102.75 287.76 102.75 292.39C102.75 297.02 104.94 299.72 108.3 299.72C111.66 299.72 113.86 297.05 113.86 292.39V292.39Z" fill="#001489"/>
<path d="M121.71 274.15H126V302.86H121.71V274.15Z" fill="#001489"/>
<path d="M129.58 296.91C129.58 293.25 132.39 291 137.36 290.72L143.09 290.38V288.77C143.09 286.44 141.52 285.05 138.9 285.05C136.28 285.05 134.9 286.25 134.48 288.12H130.42C130.66 284.34 133.88 281.55 139.05 281.55C144.22 281.55 147.37 284.24 147.37 288.43V302.86H143.25V299.42H143.15C142.492 300.587 141.532 301.556 140.371 302.224C139.21 302.893 137.89 303.237 136.55 303.22C132.45 303.22 129.58 300.67 129.58 296.91ZM143.09 295.02V293.37L137.94 293.69C135.37 293.87 133.94 295 133.94 296.79C133.94 298.58 135.45 299.79 137.76 299.79C140.75 299.82 143.09 297.75 143.09 295V295.02Z" fill="#001489"/>
<path d="M158.84 292.39C158.84 285.79 162.34 281.59 167.6 281.59C168.943 281.543 170.271 281.877 171.432 282.553C172.593 283.229 173.539 284.219 174.16 285.41H174.24V274.15H178.56V302.86H174.38V299.3H174.3C173.674 300.516 172.716 301.529 171.537 302.223C170.358 302.917 169.007 303.262 167.64 303.22C162.34 303.22 158.84 299 158.84 292.39ZM163.24 292.39C163.24 296.81 165.37 299.58 168.77 299.58C172.17 299.58 174.28 296.77 174.28 292.39C174.28 288.01 172.07 285.21 168.77 285.21C165.47 285.21 163.24 288 163.24 292.39Z" fill="#001489"/>
<path d="M200.9 296.71C200.3 300.53 196.68 303.26 191.9 303.26C185.76 303.26 182.03 299.1 182.03 292.49C182.03 285.88 185.82 281.55 191.72 281.55C197.62 281.55 201.16 285.65 201.16 292V293.47H186.37V293.73C186.37 297.37 188.56 299.73 192 299.73C194.45 299.73 196.26 298.49 196.84 296.66L200.9 296.71ZM186.37 290.46H196.84C196.74 287.26 194.71 285.01 191.7 285.01C188.69 285.01 186.59 287.3 186.37 290.46V290.46Z" fill="#001489"/>
<path d="M213.22 302.86V274.15H217.22L232.11 295.32H232.27V274.15H236.6V302.86H232.6L217.72 281.71H217.54V302.86H213.22Z" fill="#001489"/>
<path d="M259.36 296.71C258.76 300.53 255.14 303.26 250.36 303.26C244.21 303.26 240.49 299.1 240.49 292.49C240.49 285.88 244.27 281.55 250.18 281.55C256.09 281.55 259.61 285.65 259.61 292V293.47H244.83V293.73C244.83 297.37 247.02 299.73 250.46 299.73C252.91 299.73 254.72 298.49 255.3 296.66L259.36 296.71ZM244.83 290.46H255.3C255.2 287.26 253.17 285.01 250.16 285.01C247.15 285.01 245.05 287.3 244.83 290.46Z" fill="#001489"/>
<path d="M262.73 304.49H267.05C267.67 306.24 269.58 307.4 272.05 307.4C275.42 307.4 277.41 305.49 277.41 302.62V299.18H277.33C276.68 300.358 275.717 301.333 274.547 301.997C273.376 302.661 272.045 302.987 270.7 302.94C265.45 302.94 262.01 298.84 262.01 292.31C262.01 285.78 265.43 281.59 270.8 281.59C272.167 281.555 273.517 281.904 274.695 282.597C275.874 283.29 276.836 284.299 277.47 285.51H277.54V281.93H281.72V302.48C281.72 307.48 277.86 310.74 271.89 310.74C266.93 310.74 263.27 308.11 262.73 304.49ZM277.4 292.33C277.4 288.04 275.19 285.21 271.82 285.21C268.45 285.21 266.37 287.98 266.37 292.33C266.37 296.68 268.52 299.33 271.82 299.33C275.12 299.33 277.4 296.65 277.4 292.33Z" fill="#001489"/>
<path d="M285 292.39C285 285.67 289 281.55 294.93 281.55C300.86 281.55 304.86 285.67 304.86 292.39C304.86 299.11 300.92 303.26 294.93 303.26C288.94 303.26 285 299.14 285 292.39ZM300.48 292.39C300.48 287.76 298.29 285.09 294.93 285.09C291.57 285.09 289.38 287.76 289.38 292.39C289.38 297.02 291.56 299.72 294.93 299.72C298.3 299.72 300.47 297.05 300.47 292.39H300.48ZM293.14 278.94L297.39 272.94H301.71L296.71 278.94H293.14Z" fill="#001489"/>
<path d="M322 289.13C321.817 287.976 321.215 286.93 320.309 286.192C319.403 285.454 318.257 285.076 317.09 285.13C313.76 285.13 311.57 287.9 311.57 292.39C311.57 296.88 313.78 299.66 317.13 299.66C318.28 299.739 319.418 299.385 320.319 298.666C321.221 297.948 321.82 296.918 322 295.78H326.14C325.68 300.23 322.14 303.26 317.09 303.26C311.09 303.26 307.2 299.16 307.2 292.39C307.2 285.62 311.1 281.55 317.05 281.55C322.44 281.55 325.72 285.01 326.1 289.13H322Z" fill="#001489"/>
<path d="M329 276.42C328.988 275.922 329.125 275.432 329.393 275.013C329.662 274.594 330.049 274.264 330.506 274.066C330.963 273.868 331.468 273.811 331.958 273.902C332.447 273.994 332.898 274.229 333.253 274.578C333.608 274.927 333.85 275.374 333.949 275.862C334.049 276.35 334 276.856 333.809 277.316C333.619 277.776 333.296 278.169 332.881 278.444C332.466 278.719 331.978 278.864 331.48 278.86C331.157 278.863 330.837 278.802 330.537 278.68C330.238 278.559 329.965 278.38 329.735 278.154C329.505 277.927 329.321 277.657 329.195 277.36C329.069 277.062 329.003 276.743 329 276.42ZM329.33 281.93H333.63V302.86H329.33V281.93Z" fill="#001489"/>
<path d="M337.1 292.39C337.1 285.67 341.1 281.55 347.03 281.55C352.96 281.55 356.96 285.67 356.96 292.39C356.96 299.11 353.02 303.26 347.03 303.26C341.04 303.26 337.1 299.14 337.1 292.39ZM352.58 292.39C352.58 287.76 350.39 285.09 347.03 285.09C343.67 285.09 341.48 287.76 341.48 292.39C341.48 297.02 343.67 299.72 347.03 299.72C350.39 299.72 352.58 297.05 352.58 292.39Z" fill="#001489"/>
<path d="M368.09 281.55C372.75 281.55 376.01 284.16 376.15 287.88H372.15C371.95 285.99 370.42 284.81 368.01 284.81C365.6 284.81 364.13 285.95 364.13 287.6C364.13 288.89 365.13 289.77 367.34 290.3L370.86 291.12C375.08 292.12 376.67 293.73 376.67 296.81C376.67 300.63 373.11 303.26 367.97 303.26C362.97 303.26 359.74 300.69 359.4 296.85H363.66C363.99 298.85 365.55 299.98 368.17 299.98C370.79 299.98 372.35 298.9 372.35 297.21C372.35 295.88 371.56 295.14 369.35 294.58L365.61 293.67C361.83 292.75 359.92 290.78 359.92 287.86C359.9 284.12 363.2 281.55 368.09 281.55Z" fill="#001489"/>
<path d="M354.89 5.06C368.336 5.07852 381.226 10.4282 390.734 19.936C400.242 29.4438 405.592 42.3339 405.61 55.78V354.07C405.594 367.517 400.245 380.409 390.737 389.917C381.229 399.425 368.337 404.774 354.89 404.79H56.6001C43.1524 404.777 30.2592 399.429 20.7502 389.92C11.2413 380.411 5.89336 367.518 5.88013 354.07V55.78C5.89601 42.3331 11.2448 29.4415 20.7532 19.9331C30.2616 10.4247 43.1532 5.07588 56.6001 5.06H354.89M354.89 0.0599976H56.6001C49.2828 0.0599976 42.0372 1.50123 35.277 4.30142C28.5167 7.10161 22.3742 11.2059 17.2001 16.38C12.026 21.5541 7.92177 27.6966 5.12158 34.4569C2.32139 41.2171 0.880127 48.4627 0.880127 55.78V354.07C0.880127 361.387 2.32139 368.633 5.12158 375.393C7.92177 382.153 12.026 388.296 17.2001 393.47C22.3742 398.644 28.5167 402.748 35.277 405.549C42.0372 408.349 49.2828 409.79 56.6001 409.79H354.89C362.207 409.79 369.453 408.349 376.213 405.549C382.974 402.748 389.116 398.644 394.29 393.47C399.464 388.296 403.568 382.153 406.369 375.393C409.169 368.633 410.61 361.387 410.61 354.07V55.78C410.61 48.4627 409.169 41.2171 406.369 34.4569C403.568 27.6966 399.464 21.5541 394.29 16.38C389.116 11.2059 382.974 7.10161 376.213 4.30142C369.453 1.50123 362.207 0.0599976 354.89 0.0599976V0.0599976Z" fill="#001489"/>
</svg>
