<svg width="410" height="411" viewBox="0 0 410 411" fill="none" xmlns="http://www.w3.org/2000/svg">
<path d="M199.18 112C199.18 112 204.85 167.59 211.18 184.35C211.18 184.35 187.05 156.01 199.18 112Z" fill="#001489"/>
<path d="M199.18 112C199.18 112 204.85 167.59 211.18 184.35C211.17 184.3 187 156 199.18 112Z" fill="#001489"/>
<path d="M133.11 97.78H141.7C141.7 97.78 155.7 111.1 147.2 123.61C147.2 123.61 157 145.96 145.99 150.61C145.99 150.61 146.8 158.22 157.08 174.42C157.08 174.42 145.02 164.22 140.32 149.24C140.32 149.24 146.88 149.24 147.26 140.81C147.53 134.73 142.75 126.6 140.44 124.42C140.44 124.42 153.2 113.49 133.11 97.74" fill="#001489"/>
<path d="M267.61 97.78H259C259 97.78 245 111.1 253.49 123.61C253.49 123.61 243.69 145.96 254.71 150.61C254.71 150.61 253.9 158.22 243.61 174.42C243.61 174.42 255.68 164.22 260.38 149.24C260.38 149.24 253.82 149.24 253.44 140.81C253.16 134.73 257.95 126.6 260.25 124.42C260.25 124.42 247.5 113.49 267.58 97.74" fill="#001489"/>
<path d="M247.49 96.64L243.28 89.44C243.28 89.44 232.83 94.44 215.78 93.44C217.001 96.9538 216.979 100.78 215.72 104.28C217.14 104.28 229.2 104.1 234.72 100.56L236.58 104.29C236.58 104.29 230.42 112.46 237.39 118.94C237.39 118.94 228.16 138.46 237.23 150.77C237.23 150.77 229.86 189.71 200.38 192.3C170.91 189.71 163.54 150.77 163.54 150.77C172.61 138.46 163.38 118.94 163.38 118.94C170.38 112.46 164.19 104.29 164.19 104.29L166.05 100.56C171.55 104.1 183.6 104.27 185.05 104.28C183.804 100.778 183.783 96.9561 184.99 93.44C167.99 94.44 157.5 89.44 157.5 89.44L153.29 96.64C166.04 113.59 153.29 119.15 153.29 119.15C165.11 143.04 153.77 152.76 153.77 152.76C165.11 200.53 200.41 202.64 200.41 202.64C200.41 202.64 235.72 200.53 247.06 152.76C247.06 152.76 235.72 143.04 247.54 119.15C247.54 119.15 234.79 113.59 247.54 96.64" fill="#001489"/>
<path d="M209.9 98.75C209.9 100.637 209.341 102.481 208.293 104.05C207.244 105.619 205.754 106.842 204.011 107.564C202.268 108.286 200.35 108.475 198.499 108.107C196.649 107.739 194.949 106.83 193.615 105.496C192.28 104.162 191.372 102.462 191.004 100.611C190.636 98.7606 190.824 96.8424 191.546 95.0992C192.269 93.356 193.491 91.8661 195.06 90.8178C196.629 89.7695 198.473 89.21 200.36 89.21C201.614 89.2087 202.855 89.4545 204.013 89.9335C205.171 90.4125 206.223 91.1152 207.109 92.0013C207.995 92.8874 208.698 93.9396 209.177 95.0977C209.656 96.2557 209.902 97.4968 209.9 98.75" fill="#001489"/>
<path d="M207.93 112C207.93 112 224.73 153.25 193.07 183.62C193.07 183.62 205.44 162.45 207.93 112Z" fill="#001489"/>
<path d="M192.85 108.23C192.85 108.23 180.79 128.81 199.13 153.59C199.13 153.59 189.23 131.16 192.85 108.23Z" fill="#001489"/>
<path d="M115 250.84C112.031 251.917 108.898 252.471 105.74 252.48C101.2 252.48 97.4602 251.33 94.5302 248.48C91.9402 245.99 90.3401 241.98 90.3401 237.31C90.3401 228.31 96.5301 221.82 106.59 221.82C109.165 221.761 111.724 222.231 114.11 223.2L113.11 226.36C111.027 225.432 108.759 224.99 106.48 225.07C99.1801 225.07 94.4202 229.61 94.4202 237.13C94.4202 244.65 98.9601 249.24 105.99 249.24C107.747 249.334 109.504 249.061 111.15 248.44V239.44H105.15V236.33H115V250.84Z" fill="#001489"/>
<path d="M136.31 238.11H124.7V248.92H137.7V252.17H120.79V222.17H137V225.42H124.7V234.9H136.31V238.11Z" fill="#001489"/>
<path d="M142.72 222.57C145.179 222.161 147.668 221.954 150.16 221.95C154.29 221.95 157.01 222.75 158.84 224.4C159.61 225.14 160.217 226.033 160.621 227.022C161.026 228.01 161.22 229.072 161.19 230.14C161.206 231.844 160.669 233.507 159.659 234.879C158.649 236.251 157.222 237.259 155.59 237.75V237.88C157.86 238.69 159.24 240.82 159.95 243.94C160.95 248.12 161.64 251.01 162.26 252.17H158.26C157.358 249.855 156.688 247.457 156.26 245.01C155.37 240.87 153.72 239.31 150.26 239.17H146.61V252.17H142.73L142.72 222.57ZM146.6 236.24H150.6C154.74 236.24 157.36 233.97 157.36 230.54C157.36 226.67 154.56 224.98 150.46 224.98C149.179 224.937 147.898 225.041 146.64 225.29L146.6 236.24Z" fill="#001489"/>
<path d="M192 239C191.78 234.81 191.51 229.74 191.51 226H191.42C190.35 229.48 189.15 233.26 187.64 237.4L182.34 251.95H179.4L174.51 237.67C173.08 233.39 171.93 229.57 171.08 226H170.99C170.9 229.74 170.68 234.73 170.41 239.27L169.61 252.13H165.92L168.01 222.13H172.95L178.07 236.64C179.32 240.34 180.29 243.64 181.07 246.75H181.17C181.97 243.75 183.03 240.43 184.37 236.64L189.71 222.13H194.65L196.52 252.13H192.69L192 239Z" fill="#001489"/>
<path d="M206.33 222.17V252.17H202.41V222.17H206.33Z" fill="#001489"/>
<path d="M213.09 252.17V222.17H217.36L226.93 237.35C228.925 240.477 230.709 243.735 232.27 247.1L232.41 247.05C232.05 243.05 231.96 239.4 231.96 234.72V222.17H235.61V252.17H231.7L222.17 237C220.103 233.79 218.246 230.45 216.61 227H216.47C216.7 230.78 216.74 234.39 216.74 239.37V252.19L213.09 252.17Z" fill="#001489"/>
<path d="M247.23 242.74L244.11 252.17H240.11L250.34 222.17H255L265.24 252.17H261.1L257.9 242.74H247.23ZM257.11 239.74L254.11 231.11C253.44 229.11 252.99 227.37 252.55 225.63H252.46C252.02 227.37 251.57 229.24 250.95 231.06L248.01 239.74H257.11Z" fill="#001489"/>
<path d="M269.62 222.57C272.076 222.161 274.561 221.954 277.05 221.95C281.19 221.95 283.9 222.75 285.73 224.4C286.503 225.138 287.113 226.031 287.519 227.02C287.926 228.008 288.12 229.071 288.09 230.14C288.106 231.845 287.567 233.509 286.555 234.881C285.543 236.254 284.113 237.26 282.48 237.75V237.88C284.75 238.69 286.13 240.82 286.84 243.94C287.84 248.12 288.53 251.01 289.16 252.17H285.16C284.258 249.855 283.588 247.457 283.16 245.01C282.27 240.87 280.63 239.31 277.16 239.17H273.51V252.17H269.64L269.62 222.57ZM273.49 236.24H277.49C281.63 236.24 284.26 233.97 284.26 230.54C284.26 226.67 281.45 224.98 277.36 224.98C276.076 224.938 274.791 225.042 273.53 225.29L273.49 236.24Z" fill="#001489"/>
<path d="M309.05 238.11H297.44V248.92H310.44V252.17H293.53V222.17H309.77V225.42H297.45V234.9H309.06L309.05 238.11Z" fill="#001489"/>
<path d="M75.6501 303.5H57.4202V274.78H75.6501V278.62H61.8801V287H74.8801V290.7H61.8801V299.62H75.6501V303.5Z" fill="#001489"/>
<path d="M87.5201 282.19C92.1701 282.19 95.4401 284.79 95.5801 288.51H91.5801C91.3801 286.62 89.8501 285.45 87.4401 285.45C85.0301 285.45 83.5602 286.58 83.5602 288.23C83.5602 289.53 84.5601 290.4 86.7601 290.94L90.2802 291.76C94.5002 292.76 96.0901 294.36 96.0901 297.45C96.0901 301.27 92.5301 303.89 87.4001 303.89C82.4001 303.89 79.1601 301.33 78.8201 297.49H83.0001C83.3401 299.49 84.8901 300.61 87.5201 300.61C90.1501 300.61 91.7001 299.54 91.7001 297.84C91.7001 296.51 90.9001 295.78 88.7001 295.22L84.9601 294.3C81.1801 293.39 79.2701 291.42 79.2701 288.49C79.3201 284.75 82.6201 282.19 87.5201 282.19Z" fill="#001489"/>
<path d="M113.26 289.77C113.077 288.614 112.473 287.567 111.565 286.829C110.657 286.091 109.509 285.714 108.34 285.77C105.02 285.77 102.83 288.53 102.83 293.03C102.83 297.53 105.04 300.29 108.38 300.29C109.532 300.374 110.674 300.022 111.578 299.303C112.482 298.584 113.083 297.551 113.26 296.41H117.4C116.94 300.87 113.4 303.89 108.34 303.89C102.34 303.89 98.4502 299.79 98.4502 293.03C98.4502 286.27 102.35 282.19 108.3 282.19C113.7 282.19 116.98 285.65 117.36 289.77H113.26Z" fill="#001489"/>
<path d="M119.5 293C119.5 286.27 123.5 282.16 129.43 282.16C135.36 282.16 139.36 286.27 139.36 293C139.36 299.73 135.42 303.86 129.43 303.86C123.44 303.86 119.5 299.77 119.5 293ZM134.98 293C134.98 288.36 132.79 285.7 129.43 285.7C126.07 285.7 123.88 288.36 123.88 293C123.88 297.64 126.06 300.32 129.43 300.32C132.8 300.32 135 297.69 135 293H134.98Z" fill="#001489"/>
<path d="M142.83 274.78H147.13V303.5H142.83V274.78Z" fill="#001489"/>
<path d="M150.71 297.55C150.71 293.89 153.51 291.64 158.49 291.36L164.22 291.02V289.41C164.22 287.08 162.64 285.69 160.02 285.69C157.4 285.69 156.02 286.88 155.6 288.75H151.54C151.78 284.97 155 282.19 160.18 282.19C165.36 282.19 168.5 284.87 168.5 289.07V303.5H164.38V300.05H164.28C163.62 301.218 162.658 302.187 161.495 302.855C160.333 303.524 159.011 303.867 157.67 303.85C153.57 303.85 150.71 301.31 150.71 297.55ZM164.22 295.66V294L159.06 294.32C156.5 294.5 155.06 295.64 155.06 297.43C155.06 299.22 156.58 300.43 158.88 300.43C161.87 300.45 164.22 298.38 164.22 295.66Z" fill="#001489"/>
<path d="M180 293C180 286.39 183.5 282.2 188.75 282.2C190.093 282.155 191.423 282.489 192.585 283.165C193.747 283.84 194.695 284.83 195.32 286.02H195.4V274.78H199.71V303.5H195.53V299.93H195.46C194.831 301.146 193.871 302.159 192.691 302.852C191.51 303.546 190.158 303.892 188.79 303.85C183.47 303.85 180 299.64 180 293ZM184.39 293C184.39 297.42 186.52 300.18 189.92 300.18C193.32 300.18 195.44 297.38 195.44 293C195.44 288.62 193.23 285.82 189.92 285.82C186.61 285.82 184.36 288.63 184.36 293H184.39Z" fill="#001489"/>
<path d="M234.35 303.5V274.78H252.27V278.62H238.8V287.72H251.14V291.48H238.8V303.48L234.35 303.5Z" fill="#001489"/>
<path d="M253.58 297.55C253.58 293.89 256.39 291.64 261.36 291.36L267.09 291.02V289.41C267.09 287.08 265.52 285.69 262.89 285.69C260.26 285.69 258.89 286.88 258.48 288.75H254.42C254.66 284.97 257.88 282.19 263.05 282.19C268.22 282.19 271.37 284.87 271.37 289.07V303.5H267.25V300.05H267.15C266.491 301.219 265.53 302.188 264.366 302.857C263.203 303.525 261.882 303.869 260.54 303.85C256.45 303.85 253.58 301.31 253.58 297.55ZM267.09 295.66V294L261.94 294.32C259.37 294.5 257.94 295.64 257.94 297.43C257.94 299.22 259.45 300.43 261.76 300.43C264.74 300.45 267.09 298.38 267.09 295.66Z" fill="#001489"/>
<path d="M275.52 282.56H279.62V286.09H279.72C280.195 284.902 281.028 283.89 282.102 283.195C283.177 282.5 284.441 282.156 285.72 282.21C287.013 282.133 288.295 282.495 289.356 283.237C290.418 283.98 291.198 285.059 291.57 286.3H291.67C292.22 285.042 293.136 283.979 294.299 283.249C295.462 282.52 296.818 282.157 298.19 282.21C302.33 282.21 305.04 284.95 305.04 289.11V303.5H300.72V290.14C300.72 287.44 299.27 285.89 296.72 285.89C296.132 285.879 295.547 285.99 295.004 286.217C294.461 286.443 293.971 286.78 293.565 287.206C293.159 287.632 292.846 288.138 292.645 288.691C292.445 289.244 292.361 289.833 292.4 290.42V303.5H288.18V289.83C288.22 289.297 288.143 288.762 287.956 288.262C287.768 287.762 287.473 287.308 287.093 286.933C286.712 286.558 286.254 286.271 285.751 286.091C285.248 285.911 284.712 285.842 284.18 285.89C283.582 285.891 282.99 286.016 282.442 286.255C281.893 286.494 281.4 286.844 280.992 287.281C280.584 287.719 280.271 288.236 280.071 288.8C279.871 289.364 279.789 289.963 279.83 290.56V303.5H275.53L275.52 282.56Z" fill="#001489"/>
<path d="M309.25 282.56H313.55V303.5H309.25V282.56ZM309.61 279.56L313.87 273.56H318.19L313.19 279.56H309.61Z" fill="#001489"/>
<path d="M318.11 274.78H322.4V303.5H318.11V274.78Z" fill="#001489"/>
<path d="M326.62 277.05C326.61 276.553 326.749 276.065 327.018 275.647C327.287 275.229 327.674 274.901 328.13 274.704C328.587 274.507 329.092 274.451 329.58 274.543C330.069 274.634 330.519 274.869 330.873 275.218C331.227 275.567 331.469 276.013 331.569 276.5C331.668 276.987 331.62 277.492 331.431 277.952C331.242 278.411 330.92 278.804 330.507 279.08C330.093 279.356 329.607 279.502 329.11 279.5C328.786 279.503 328.464 279.441 328.163 279.32C327.863 279.198 327.589 279.018 327.358 278.791C327.126 278.563 326.942 278.292 326.816 277.994C326.689 277.695 326.623 277.374 326.62 277.05V277.05ZM326.96 282.56H331.25V303.5H327L326.96 282.56Z" fill="#001489"/>
<path d="M334.81 297.55C334.81 293.89 337.62 291.64 342.59 291.36L348.32 291.02V289.41C348.32 287.08 346.75 285.69 344.12 285.69C341.64 285.69 340.12 286.88 339.71 288.75H335.65C335.89 284.97 339.11 282.19 344.28 282.19C349.45 282.19 352.6 284.87 352.6 289.07V303.5H348.48V300.05H348.38C347.722 301.217 346.762 302.186 345.601 302.854C344.439 303.523 343.12 303.867 341.78 303.85C337.68 303.85 334.81 301.31 334.81 297.55ZM348.32 295.66V294L343.17 294.32C340.6 294.5 339.17 295.64 339.17 297.43C339.17 299.22 340.68 300.43 342.99 300.43C346 300.45 348.32 298.38 348.32 295.66Z" fill="#001489"/>
<path d="M203.07 297.55C203.07 293.89 205.88 291.64 210.85 291.36L216.58 291.02V289.41C216.58 287.08 215.01 285.69 212.38 285.69C209.75 285.69 208.38 286.88 207.97 288.75H203.91C204.15 284.97 207.37 282.19 212.54 282.19C217.71 282.19 220.86 284.87 220.86 289.07V303.5H216.74V300.05H216.64C215.982 301.217 215.022 302.186 213.861 302.854C212.7 303.523 211.38 303.867 210.04 303.85C205.94 303.85 203.07 301.31 203.07 297.55ZM216.58 295.66V294L211.43 294.32C208.86 294.5 207.43 295.64 207.43 297.43C207.43 299.22 208.94 300.43 211.25 300.43C214.24 300.45 216.58 298.38 216.58 295.66Z" fill="#001489"/>
<path d="M354.15 5.70001C367.598 5.71325 380.491 11.0612 390 20.5702C399.509 30.0791 404.857 42.9723 404.87 56.42V354.71C404.854 368.157 399.505 381.049 389.997 390.557C380.489 400.065 367.597 405.414 354.15 405.43H55.8701C42.4232 405.414 29.5316 400.065 20.0232 390.557C10.5148 381.049 5.16603 368.157 5.15015 354.71V56.42C5.16338 42.9723 10.5113 30.0791 20.0203 20.5702C29.5292 11.0612 42.4224 5.71325 55.8701 5.70001H354.15M354.15 0.700012H55.8701C41.0923 0.700012 26.9196 6.57049 16.4701 17.02C6.02057 27.4695 0.150146 41.6422 0.150146 56.42V354.71C0.150146 369.488 6.02057 383.66 16.4701 394.11C26.9196 404.56 41.0923 410.43 55.8701 410.43H354.15C368.928 410.43 383.101 404.56 393.55 394.11C404 383.66 409.87 369.488 409.87 354.71V56.42C409.87 41.6422 404 27.4695 393.55 17.02C383.101 6.57049 368.928 0.700012 354.15 0.700012V0.700012Z" fill="#001489"/>
</svg>
